<?xml version="1.0" encoding="UTF-8" standalone="no"?>
<!-- Created with Inkscape (http://www.inkscape.org/) -->

<svg
   xmlns:dc="http://purl.org/dc/elements/1.1/"
   xmlns:cc="http://creativecommons.org/ns#"
   xmlns:rdf="http://www.w3.org/1999/02/22-rdf-syntax-ns#"
   xmlns:svg="http://www.w3.org/2000/svg"
   xmlns="http://www.w3.org/2000/svg"
   xmlns:sodipodi="http://sodipodi.sourceforge.net/DTD/sodipodi-0.dtd"
   xmlns:inkscape="http://www.inkscape.org/namespaces/inkscape"
   width="744.09448819"
   height="1052.3622047"
   id="svg2"
   version="1.1"
   inkscape:version="0.48.2 r9819"
   sodipodi:docname="points.svg">
  <defs
     id="defs4" />
  <sodipodi:namedview
     id="base"
     pagecolor="#ffffff"
     bordercolor="#666666"
     borderopacity="1.0"
     inkscape:pageopacity="0.0"
     inkscape:pageshadow="2"
     inkscape:zoom="0.24748737"
     inkscape:cx="874.49841"
     inkscape:cy="425.50621"
     inkscape:document-units="px"
     inkscape:current-layer="layer1"
     showgrid="false"
     inkscape:window-width="1366"
     inkscape:window-height="709"
     inkscape:window-x="-8"
     inkscape:window-y="760"
     inkscape:window-maximized="1" />
  <metadata
     id="metadata7">
    <rdf:RDF>
      <cc:Work
         rdf:about="">
        <dc:format>image/svg+xml</dc:format>
        <dc:type
           rdf:resource="http://purl.org/dc/dcmitype/StillImage" />
        <dc:title></dc:title>
      </cc:Work>
    </rdf:RDF>
  </metadata>
  <g
     inkscape:label="Layer 1"
     inkscape:groupmode="layer"
     id="layer1">
    <path
       sodipodi:type="star"
       style="opacity:1;fill:#002dff;fill-opacity:1;stroke:#00a3ff;stroke-width:18.58099937000000100;stroke-linecap:butt;stroke-linejoin:miter;stroke-miterlimit:4;stroke-opacity:1;stroke-dasharray:none"
       id="path2987"
       sodipodi:sides="5"
       sodipodi:cx="291.93408"
       sodipodi:cy="543.2453"
       sodipodi:r1="102.02541"
       sodipodi:r2="225.29128"
       sodipodi:arg1="-0.1993373"
       sodipodi:arg2="-2.2149968"
       inkscape:flatsided="false"
       inkscape:rounded="0.13280381"
       inkscape:randomized="0"
       d="M 391.93919,523.04225 C 403.02554,486.92073 172.38641,328.76286 156.6333,363.10686 c -18.08984,39.4384 142.03483,269.71601 185.4183,269.00586 37.77948,-0.61841 116.92515,-268.84273 79.39408,-273.21195 -43.09822,-5.01732 -212.62399,218.42998 -198.54237,259.47067 12.26264,35.73932 291.81649,28.12545 284.37412,-8.91888 C 498.73111,566.91328 233.83375,474.7337 199.15319,500.80838 168.95245,523.51491 262.58056,787.0336 295.51199,768.50816 333.32829,747.23477 339.1385,466.81735 303.62312,441.8917 272.69538,420.18579 51.006894,590.66317 78.802005,616.25815 110.72009,645.64975 379.20835,564.52183 391.93919,523.04225 z"
       inkscape:transform-center-x="-3.46613"
       inkscape:transform-center-y="-5.9685274"
       inkscape:export-filename="C:\Users\Ajay\Downloads\eclipse-jee-juno-SR1-win32-x86_64\projects\Lib-GDX\Bouncee\android\assets\point3.png"
       inkscape:export-xdpi="20.106819"
       inkscape:export-ydpi="20.106819" />
    <path
       inkscape:transform-center-y="-5.9685274"
       inkscape:transform-center-x="-3.46613"
       d="M 391.93919,523.04225 C 403.02554,486.92073 172.38641,328.76286 156.6333,363.10686 c -18.08984,39.4384 142.03483,269.71601 185.4183,269.00586 37.77948,-0.61841 116.92515,-268.84273 79.39408,-273.21195 -43.09822,-5.01732 -212.62399,218.42998 -198.54237,259.47067 12.26264,35.73932 291.81649,28.12545 284.37412,-8.91888 C 498.73111,566.91328 233.83375,474.7337 199.15319,500.80838 168.95245,523.51491 262.58056,787.0336 295.51199,768.50816 333.32829,747.23477 339.1385,466.81735 303.62312,441.8917 272.69538,420.18579 51.006894,590.66317 78.802005,616.25815 110.72009,645.64975 379.20835,564.52183 391.93919,523.04225 z"
       inkscape:randomized="0"
       inkscape:rounded="0.13280381"
       inkscape:flatsided="false"
       sodipodi:arg2="-2.2149968"
       sodipodi:arg1="-0.1993373"
       sodipodi:r2="225.29128"
       sodipodi:r1="102.02541"
       sodipodi:cy="543.2453"
       sodipodi:cx="291.93408"
       sodipodi:sides="5"
       id="path3757"
       style="opacity:1;fill:#960000;fill-opacity:1;stroke:#ff0017;stroke-width:18.58099937000000100;stroke-linecap:butt;stroke-linejoin:miter;stroke-miterlimit:4;stroke-opacity:1;stroke-dasharray:none"
       sodipodi:type="star"
       transform="translate(474.28571,0)"
       inkscape:export-filename="C:\Users\Ajay\Downloads\eclipse-jee-juno-SR1-win32-x86_64\projects\Lib-GDX\Bouncee\android\assets\point4.png"
       inkscape:export-xdpi="20.106819"
       inkscape:export-ydpi="20.106819" />
    <path
       transform="translate(-4.5265962,464.67017)"
       sodipodi:type="star"
       style="fill:#ffff22;fill-opacity:1;stroke:#77ff00;stroke-width:18.58099937;stroke-linecap:butt;stroke-linejoin:miter;stroke-miterlimit:4;stroke-opacity:1;stroke-dasharray:none"
       id="path3759"
       sodipodi:sides="5"
       sodipodi:cx="291.93408"
       sodipodi:cy="543.2453"
       sodipodi:r1="102.02541"
       sodipodi:r2="225.29128"
       sodipodi:arg1="-0.1993373"
       sodipodi:arg2="-2.2149968"
       inkscape:flatsided="false"
       inkscape:rounded="0.13280381"
       inkscape:randomized="0"
       d="M 391.93919,523.04225 C 403.02554,486.92073 172.38641,328.76286 156.6333,363.10686 c -18.08984,39.4384 142.03483,269.71601 185.4183,269.00586 37.77948,-0.61841 116.92515,-268.84273 79.39408,-273.21195 -43.09822,-5.01732 -212.62399,218.42998 -198.54237,259.47067 12.26264,35.73932 291.81649,28.12545 284.37412,-8.91888 C 498.73111,566.91328 233.83375,474.7337 199.15319,500.80838 168.95245,523.51491 262.58056,787.0336 295.51199,768.50816 333.32829,747.23477 339.1385,466.81735 303.62312,441.8917 272.69538,420.18579 51.006894,590.66317 78.802005,616.25815 110.72009,645.64975 379.20835,564.52183 391.93919,523.04225 z"
       inkscape:transform-center-x="-3.46613"
       inkscape:transform-center-y="-5.9685274"
       inkscape:export-filename="C:\Users\Ajay\Downloads\eclipse-jee-juno-SR1-win32-x86_64\projects\Lib-GDX\Bouncee\android\assets\point6.png"
       inkscape:export-xdpi="20.106819"
       inkscape:export-ydpi="20.106819" />
    <path
       inkscape:transform-center-y="-5.9685274"
       inkscape:transform-center-x="-3.46613"
       d="M 391.93919,523.04225 C 403.02554,486.92073 172.38641,328.76286 156.6333,363.10686 c -18.08984,39.4384 142.03483,269.71601 185.4183,269.00586 37.77948,-0.61841 116.92515,-268.84273 79.39408,-273.21195 -43.09822,-5.01732 -212.62399,218.42998 -198.54237,259.47067 12.26264,35.73932 291.81649,28.12545 284.37412,-8.91888 C 498.73111,566.91328 233.83375,474.7337 199.15319,500.80838 168.95245,523.51491 262.58056,787.0336 295.51199,768.50816 333.32829,747.23477 339.1385,466.81735 303.62312,441.8917 272.69538,420.18579 51.006894,590.66317 78.802005,616.25815 110.72009,645.64975 379.20835,564.52183 391.93919,523.04225 z"
       inkscape:randomized="0"
       inkscape:rounded="0.13280381"
       inkscape:flatsided="false"
       sodipodi:arg2="-2.2149968"
       sodipodi:arg1="-0.1993373"
       sodipodi:r2="225.29128"
       sodipodi:r1="102.02541"
       sodipodi:cy="543.2453"
       sodipodi:cx="291.93408"
       sodipodi:sides="5"
       id="path3761"
       style="fill:#ffc422;fill-opacity:1;stroke:#ff6f00;stroke-width:18.58099937000000100;stroke-linecap:butt;stroke-linejoin:miter;stroke-miterlimit:4;stroke-opacity:1;stroke-dasharray:none"
       sodipodi:type="star"
       transform="translate(470.2451,464.67017)"
       inkscape:export-filename="C:\Users\Ajay\Downloads\eclipse-jee-juno-SR1-win32-x86_64\projects\Lib-GDX\Bouncee\android\assets\point7.png"
       inkscape:export-xdpi="20.106819"
       inkscape:export-ydpi="20.106819" />
    <path
       transform="translate(470.2451,-466.69048)"
       sodipodi:type="star"
       style="fill:#00c422;fill-opacity:1;stroke:#053900;stroke-width:18.58099937000000100;stroke-linecap:butt;stroke-linejoin:miter;stroke-miterlimit:4;stroke-opacity:1;stroke-dasharray:none"
       id="path3763"
       sodipodi:sides="5"
       sodipodi:cx="291.93408"
       sodipodi:cy="543.2453"
       sodipodi:r1="102.02541"
       sodipodi:r2="225.29128"
       sodipodi:arg1="-0.1993373"
       sodipodi:arg2="-2.2149968"
       inkscape:flatsided="false"
       inkscape:rounded="0.13280381"
       inkscape:randomized="0"
       d="M 391.93919,523.04225 C 403.02554,486.92073 172.38641,328.76286 156.6333,363.10686 c -18.08984,39.4384 142.03483,269.71601 185.4183,269.00586 37.77948,-0.61841 116.92515,-268.84273 79.39408,-273.21195 -43.09822,-5.01732 -212.62399,218.42998 -198.54237,259.47067 12.26264,35.73932 291.81649,28.12545 284.37412,-8.91888 C 498.73111,566.91328 233.83375,474.7337 199.15319,500.80838 168.95245,523.51491 262.58056,787.0336 295.51199,768.50816 333.32829,747.23477 339.1385,466.81735 303.62312,441.8917 272.69538,420.18579 51.006894,590.66317 78.802005,616.25815 110.72009,645.64975 379.20835,564.52183 391.93919,523.04225 z"
       inkscape:transform-center-x="-3.46613"
       inkscape:transform-center-y="-5.9685274"
       inkscape:export-filename="C:\Users\Ajay\Downloads\eclipse-jee-juno-SR1-win32-x86_64\projects\Lib-GDX\Bouncee\android\assets\point1.png"
       inkscape:export-xdpi="20.106819"
       inkscape:export-ydpi="20.106819" />
    <path
       inkscape:transform-center-y="-5.9685274"
       inkscape:transform-center-x="-3.46613"
       d="M 391.93919,523.04225 C 403.02554,486.92073 172.38641,328.76286 156.6333,363.10686 c -18.08984,39.4384 142.03483,269.71601 185.4183,269.00586 37.77948,-0.61841 116.92515,-268.84273 79.39408,-273.21195 -43.09822,-5.01732 -212.62399,218.42998 -198.54237,259.47067 12.26264,35.73932 291.81649,28.12545 284.37412,-8.91888 C 498.73111,566.91328 233.83375,474.7337 199.15319,500.80838 168.95245,523.51491 262.58056,787.0336 295.51199,768.50816 333.32829,747.23477 339.1385,466.81735 303.62312,441.8917 272.69538,420.18579 51.006894,590.66317 78.802005,616.25815 110.72009,645.64975 379.20835,564.52183 391.93919,523.04225 z"
       inkscape:randomized="0"
       inkscape:rounded="0.13280381"
       inkscape:flatsided="false"
       sodipodi:arg2="-2.2149968"
       sodipodi:arg1="-0.1993373"
       sodipodi:r2="225.29128"
       sodipodi:r1="102.02541"
       sodipodi:cy="543.2453"
       sodipodi:cx="291.93408"
       sodipodi:sides="5"
       id="path3765"
       style="fill:#ff0b87;fill-opacity:1;stroke:#a20055;stroke-width:18.58099937000000100;stroke-linecap:butt;stroke-linejoin:miter;stroke-miterlimit:4;stroke-opacity:1;stroke-dasharray:none"
       sodipodi:type="star"
       transform="translate(9.6155396,-466.69048)"
       inkscape:export-filename="C:\Users\Ajay\Downloads\eclipse-jee-juno-SR1-win32-x86_64\projects\Lib-GDX\Bouncee\android\assets\point0.png"
       inkscape:export-xdpi="20.106819"
       inkscape:export-ydpi="20.106819" />
    <path
       transform="translate(949.05741,0)"
       sodipodi:type="star"
       style="fill:#963500;fill-opacity:1;stroke:#ff4917;stroke-width:18.58099937000000100;stroke-linecap:butt;stroke-linejoin:miter;stroke-miterlimit:4;stroke-opacity:1;stroke-dasharray:none"
       id="path3767"
       sodipodi:sides="5"
       sodipodi:cx="291.93408"
       sodipodi:cy="543.2453"
       sodipodi:r1="102.02541"
       sodipodi:r2="225.29128"
       sodipodi:arg1="-0.1993373"
       sodipodi:arg2="-2.2149968"
       inkscape:flatsided="false"
       inkscape:rounded="0.13280381"
       inkscape:randomized="0"
       d="M 391.93919,523.04225 C 403.02554,486.92073 172.38641,328.76286 156.6333,363.10686 c -18.08984,39.4384 142.03483,269.71601 185.4183,269.00586 37.77948,-0.61841 116.92515,-268.84273 79.39408,-273.21195 -43.09822,-5.01732 -212.62399,218.42998 -198.54237,259.47067 12.26264,35.73932 291.81649,28.12545 284.37412,-8.91888 C 498.73111,566.91328 233.83375,474.7337 199.15319,500.80838 168.95245,523.51491 262.58056,787.0336 295.51199,768.50816 333.32829,747.23477 339.1385,466.81735 303.62312,441.8917 272.69538,420.18579 51.006894,590.66317 78.802005,616.25815 110.72009,645.64975 379.20835,564.52183 391.93919,523.04225 z"
       inkscape:transform-center-x="-3.46613"
       inkscape:transform-center-y="-5.9685274"
       inkscape:export-filename="C:\Users\Ajay\Downloads\eclipse-jee-juno-SR1-win32-x86_64\projects\Lib-GDX\Bouncee\android\assets\point5.png"
       inkscape:export-xdpi="20.106819"
       inkscape:export-ydpi="20.106819" />
    <path
       transform="translate(945.0168,464.67017)"
       sodipodi:type="star"
       style="fill:#555022;fill-opacity:1;stroke:#ff6f00;stroke-width:18.58099937000000100;stroke-linecap:butt;stroke-linejoin:miter;stroke-miterlimit:4;stroke-opacity:1;stroke-dasharray:none"
       id="path3769"
       sodipodi:sides="5"
       sodipodi:cx="291.93408"
       sodipodi:cy="543.2453"
       sodipodi:r1="102.02541"
       sodipodi:r2="225.29128"
       sodipodi:arg1="-0.1993373"
       sodipodi:arg2="-2.2149968"
       inkscape:flatsided="false"
       inkscape:rounded="0.13280381"
       inkscape:randomized="0"
       d="M 391.93919,523.04225 C 403.02554,486.92073 172.38641,328.76286 156.6333,363.10686 c -18.08984,39.4384 142.03483,269.71601 185.4183,269.00586 37.77948,-0.61841 116.92515,-268.84273 79.39408,-273.21195 -43.09822,-5.01732 -212.62399,218.42998 -198.54237,259.47067 12.26264,35.73932 291.81649,28.12545 284.37412,-8.91888 C 498.73111,566.91328 233.83375,474.7337 199.15319,500.80838 168.95245,523.51491 262.58056,787.0336 295.51199,768.50816 333.32829,747.23477 339.1385,466.81735 303.62312,441.8917 272.69538,420.18579 51.006894,590.66317 78.802005,616.25815 110.72009,645.64975 379.20835,564.52183 391.93919,523.04225 z"
       inkscape:transform-center-x="-3.46613"
       inkscape:transform-center-y="-5.9685274"
       inkscape:export-filename="C:\Users\Ajay\Downloads\eclipse-jee-juno-SR1-win32-x86_64\projects\Lib-GDX\Bouncee\android\assets\point8.png"
       inkscape:export-xdpi="20.106819"
       inkscape:export-ydpi="20.106819" />
    <path
       inkscape:transform-center-y="-5.9685274"
       inkscape:transform-center-x="-3.46613"
       d="M 391.93919,523.04225 C 403.02554,486.92073 172.38641,328.76286 156.6333,363.10686 c -18.08984,39.4384 142.03483,269.71601 185.4183,269.00586 37.77948,-0.61841 116.92515,-268.84273 79.39408,-273.21195 -43.09822,-5.01732 -212.62399,218.42998 -198.54237,259.47067 12.26264,35.73932 291.81649,28.12545 284.37412,-8.91888 C 498.73111,566.91328 233.83375,474.7337 199.15319,500.80838 168.95245,523.51491 262.58056,787.0336 295.51199,768.50816 333.32829,747.23477 339.1385,466.81735 303.62312,441.8917 272.69538,420.18579 51.006894,590.66317 78.802005,616.25815 110.72009,645.64975 379.20835,564.52183 391.93919,523.04225 z"
       inkscape:randomized="0"
       inkscape:rounded="0.13280381"
       inkscape:flatsided="false"
       sodipodi:arg2="-2.2149968"
       sodipodi:arg1="-0.1993373"
       sodipodi:r2="225.29128"
       sodipodi:r1="102.02541"
       sodipodi:cy="543.2453"
       sodipodi:cx="291.93408"
       sodipodi:sides="5"
       id="path3771"
       style="fill:#002d22;fill-opacity:1;stroke:#a2ae00;stroke-width:18.58099937000000100;stroke-linecap:butt;stroke-linejoin:miter;stroke-miterlimit:4;stroke-opacity:1;stroke-dasharray:none"
       sodipodi:type="star"
       transform="translate(945.0168,-466.69048)"
       inkscape:export-filename="C:\Users\Ajay\Downloads\eclipse-jee-juno-SR1-win32-x86_64\projects\Lib-GDX\Bouncee\android\assets\point2.png"
       inkscape:export-xdpi="20.106819"
       inkscape:export-ydpi="20.106819" />
  </g>
</svg>
