<?xml version="1.0" encoding="UTF-8" standalone="no"?>
<!-- Created with Inkscape (http://www.inkscape.org/) -->

<svg
   xmlns:dc="http://purl.org/dc/elements/1.1/"
   xmlns:cc="http://creativecommons.org/ns#"
   xmlns:rdf="http://www.w3.org/1999/02/22-rdf-syntax-ns#"
   xmlns:svg="http://www.w3.org/2000/svg"
   xmlns="http://www.w3.org/2000/svg"
   xmlns:sodipodi="http://sodipodi.sourceforge.net/DTD/sodipodi-0.dtd"
   xmlns:inkscape="http://www.inkscape.org/namespaces/inkscape"
   width="744.09448819"
   height="1052.3622047"
   id="svg2"
   version="1.1"
   inkscape:version="0.48.2 r9819"
   sodipodi:docname="thing.svg">
  <defs
     id="defs4" />
  <sodipodi:namedview
     id="base"
     pagecolor="#ffffff"
     bordercolor="#666666"
     borderopacity="1.0"
     inkscape:pageopacity="0.0"
     inkscape:pageshadow="2"
     inkscape:zoom="0.38166666"
     inkscape:cx="271.48023"
     inkscape:cy="555.27429"
     inkscape:document-units="px"
     inkscape:current-layer="layer1"
     showgrid="false"
     inkscape:window-width="1366"
     inkscape:window-height="709"
     inkscape:window-x="-8"
     inkscape:window-y="760"
     inkscape:window-maximized="1" />
  <metadata
     id="metadata7">
    <rdf:RDF>
      <cc:Work
         rdf:about="">
        <dc:format>image/svg+xml</dc:format>
        <dc:type
           rdf:resource="http://purl.org/dc/dcmitype/StillImage" />
        <dc:title />
      </cc:Work>
    </rdf:RDF>
  </metadata>
  <g
     inkscape:label="Layer 1"
     inkscape:groupmode="layer"
     id="layer1">
    <rect
       style="fill:#000000;fill-opacity:1;stroke:none"
       id="rect3759"
       width="1200"
       height="591.42859"
       x="-254.97194"
       y="263.07336"
       ry="2.8301542" />
    <path
       sodipodi:type="star"
       style="fill:#c1c1c1;fill-opacity:1;stroke:#757575;stroke-width:21.20000076;stroke-miterlimit:4;stroke-opacity:1;stroke-dasharray:none"
       id="path2989"
       sodipodi:sides="5"
       sodipodi:cx="97.14286"
       sodipodi:cy="500.93362"
       sodipodi:r1="116.58403"
       sodipodi:r2="241.84663"
       sodipodi:arg1="-0.29849893"
       sodipodi:arg2="0.3298196"
       inkscape:flatsided="false"
       inkscape:rounded="0.13280381"
       inkscape:randomized="0"
       d="m 208.57143,466.64791 c 6.35306,20.64745 124.37925,92.17478 117.38272,112.61315 -6.99653,20.43838 -144.09663,4.63003 -161.77032,17.05256 C 146.51014,608.73616 114.95571,743.0889 93.355616,742.7506 71.75552,742.41231 44.423893,607.13732 27.147891,594.16742 9.8718894,581.19752 -127.65601,592.70475 -134.00908,572.0573 -140.36214,551.40985 -20.153914,483.61365 -13.157382,463.17528 -6.16085,442.73691 -59.603337,315.49603 -41.929648,303.07349 c 17.673688,-12.42253 119.298082,80.95211 140.898179,81.2904 21.600099,0.33829 126.098729,-89.80813 143.374729,-76.83822 17.276,12.9699 -40.12489,138.47479 -33.77183,159.12224 z"
       transform="matrix(0.16490915,0.11704768,-0.11704768,0.16490915,438.5116,484.26684)" />
    <path
       transform="matrix(0.16490915,0.11704768,-0.11704768,0.16490915,-71.902162,462.961)"
       d="m 208.57143,466.64791 c 6.35306,20.64745 124.37925,92.17478 117.38272,112.61315 -6.99653,20.43838 -144.09663,4.63003 -161.77032,17.05256 C 146.51014,608.73616 114.95571,743.0889 93.355616,742.7506 71.75552,742.41231 44.423893,607.13732 27.147891,594.16742 9.8718894,581.19752 -127.65601,592.70475 -134.00908,572.0573 -140.36214,551.40985 -20.153914,483.61365 -13.157382,463.17528 -6.16085,442.73691 -59.603337,315.49603 -41.929648,303.07349 c 17.673688,-12.42253 119.298082,80.95211 140.898179,81.2904 21.600099,0.33829 126.098729,-89.80813 143.374729,-76.83822 17.276,12.9699 -40.12489,138.47479 -33.77183,159.12224 z"
       inkscape:randomized="0"
       inkscape:rounded="0.13280381"
       inkscape:flatsided="false"
       sodipodi:arg2="0.3298196"
       sodipodi:arg1="-0.29849893"
       sodipodi:r2="241.84663"
       sodipodi:r1="116.58403"
       sodipodi:cy="500.93362"
       sodipodi:cx="97.14286"
       sodipodi:sides="5"
       id="path4470"
       style="fill:#c1c1c1;fill-opacity:1;stroke:#757575;stroke-width:33.56152985;stroke-miterlimit:4;stroke-opacity:1;stroke-dasharray:none"
       sodipodi:type="star" />
    <path
       sodipodi:type="star"
       style="fill:#c1c1c1;fill-opacity:1;stroke:#757575;stroke-width:21.20000076;stroke-miterlimit:4;stroke-opacity:1;stroke-dasharray:none"
       id="path4472"
       sodipodi:sides="5"
       sodipodi:cx="97.14286"
       sodipodi:cy="500.93362"
       sodipodi:r1="116.58403"
       sodipodi:r2="241.84663"
       sodipodi:arg1="-0.29849893"
       sodipodi:arg2="0.3298196"
       inkscape:flatsided="false"
       inkscape:rounded="0.13280381"
       inkscape:randomized="0"
       d="m 208.57143,466.64791 c 6.35306,20.64745 124.37925,92.17478 117.38272,112.61315 -6.99653,20.43838 -144.09663,4.63003 -161.77032,17.05256 C 146.51014,608.73616 114.95571,743.0889 93.355616,742.7506 71.75552,742.41231 44.423893,607.13732 27.147891,594.16742 9.8718894,581.19752 -127.65601,592.70475 -134.00908,572.0573 -140.36214,551.40985 -20.153914,483.61365 -13.157382,463.17528 -6.16085,442.73691 -59.603337,315.49603 -41.929648,303.07349 c 17.673688,-12.42253 119.298082,80.95211 140.898179,81.2904 21.600099,0.33829 126.098729,-89.80813 143.374729,-76.83822 17.276,12.9699 -40.12489,138.47479 -33.77183,159.12224 z"
       transform="matrix(0.16490915,0.11704768,-0.11704768,0.16490915,254.16979,300.85136)" />
    <path
       transform="matrix(0.16490915,0.11704768,-0.11704768,0.16490915,-24.65878,286.02991)"
       d="m 208.57143,466.64791 c 6.35306,20.64745 124.37925,92.17478 117.38272,112.61315 -6.99653,20.43838 -144.09663,4.63003 -161.77032,17.05256 C 146.51014,608.73616 114.95571,743.0889 93.355616,742.7506 71.75552,742.41231 44.423893,607.13732 27.147891,594.16742 9.8718894,581.19752 -127.65601,592.70475 -134.00908,572.0573 -140.36214,551.40985 -20.153914,483.61365 -13.157382,463.17528 -6.16085,442.73691 -59.603337,315.49603 -41.929648,303.07349 c 17.673688,-12.42253 119.298082,80.95211 140.898179,81.2904 21.600099,0.33829 126.098729,-89.80813 143.374729,-76.83822 17.276,12.9699 -40.12489,138.47479 -33.77183,159.12224 z"
       inkscape:randomized="0"
       inkscape:rounded="0.13280381"
       inkscape:flatsided="false"
       sodipodi:arg2="0.3298196"
       sodipodi:arg1="-0.29849893"
       sodipodi:r2="241.84663"
       sodipodi:r1="116.58403"
       sodipodi:cy="500.93362"
       sodipodi:cx="97.14286"
       sodipodi:sides="5"
       id="path4474"
       style="fill:#c1c1c1;fill-opacity:1;stroke:#757575;stroke-width:21.20000076;stroke-miterlimit:4;stroke-opacity:1;stroke-dasharray:none"
       sodipodi:type="star" />
    <path
       sodipodi:type="star"
       style="fill:#c1c1c1;fill-opacity:1;stroke:#757575;stroke-width:21.20000076;stroke-miterlimit:4;stroke-opacity:1;stroke-dasharray:none"
       id="path4476"
       sodipodi:sides="5"
       sodipodi:cx="97.14286"
       sodipodi:cy="500.93362"
       sodipodi:r1="116.58403"
       sodipodi:r2="241.84663"
       sodipodi:arg1="-0.29849893"
       sodipodi:arg2="0.3298196"
       inkscape:flatsided="false"
       inkscape:rounded="0.13280381"
       inkscape:randomized="0"
       d="m 208.57143,466.64791 c 6.35306,20.64745 124.37925,92.17478 117.38272,112.61315 -6.99653,20.43838 -144.09663,4.63003 -161.77032,17.05256 C 146.51014,608.73616 114.95571,743.0889 93.355616,742.7506 71.75552,742.41231 44.423893,607.13732 27.147891,594.16742 9.8718894,581.19752 -127.65601,592.70475 -134.00908,572.0573 -140.36214,551.40985 -20.153914,483.61365 -13.157382,463.17528 -6.16085,442.73691 -59.603337,315.49603 -41.929648,303.07349 c 17.673688,-12.42253 119.298082,80.95211 140.898179,81.2904 21.600099,0.33829 126.098729,-89.80813 143.374729,-76.83822 17.276,12.9699 -40.12489,138.47479 -33.77183,159.12224 z"
       transform="matrix(0.16490915,0.11704768,-0.11704768,0.16490915,178.20985,537.9946)" />
    <path
       sodipodi:type="arc"
       style="fill:#818181;fill-opacity:1;stroke:#363636;stroke-width:18.58099937;stroke-miterlimit:4;stroke-opacity:1;stroke-dasharray:none"
       id="path3775"
       sodipodi:cx="303.27512"
       sodipodi:cy="781.83813"
       sodipodi:rx="241.70306"
       sodipodi:ry="241.70306"
       d="m 544.97818,781.83813 a 241.70306,241.70306 0 1 1 -483.406128,0 241.70306,241.70306 0 1 1 483.406128,0 z"
       transform="translate(-261.97484,99.025365)" />
    <path
       transform="matrix(0.16490915,0.11704768,-0.11704768,0.16490915,574.6837,289.73527)"
       d="m 208.57143,466.64791 c 6.35306,20.64745 124.37925,92.17478 117.38272,112.61315 -6.99653,20.43838 -144.09663,4.63003 -161.77032,17.05256 C 146.51014,608.73616 114.95571,743.0889 93.355616,742.7506 71.75552,742.41231 44.423893,607.13732 27.147891,594.16742 9.8718894,581.19752 -127.65601,592.70475 -134.00908,572.0573 -140.36214,551.40985 -20.153914,483.61365 -13.157382,463.17528 -6.16085,442.73691 -59.603337,315.49603 -41.929648,303.07349 c 17.673688,-12.42253 119.298082,80.95211 140.898179,81.2904 21.600099,0.33829 126.098729,-89.80813 143.374729,-76.83822 17.276,12.9699 -40.12489,138.47479 -33.77183,159.12224 z"
       inkscape:randomized="0"
       inkscape:rounded="0.13280381"
       inkscape:flatsided="false"
       sodipodi:arg2="0.3298196"
       sodipodi:arg1="-0.29849893"
       sodipodi:r2="241.84663"
       sodipodi:r1="116.58403"
       sodipodi:cy="500.93362"
       sodipodi:cx="97.14286"
       sodipodi:sides="5"
       id="path4478"
       style="fill:#c1c1c1;fill-opacity:1;stroke:#757575;stroke-width:21.20000076;stroke-miterlimit:4;stroke-opacity:1;stroke-dasharray:none"
       sodipodi:type="star" />
    <path
       sodipodi:type="star"
       style="fill:#c1c1c1;fill-opacity:1;stroke:#757575;stroke-width:21.20000076;stroke-miterlimit:4;stroke-opacity:1;stroke-dasharray:none"
       id="path4480"
       sodipodi:sides="5"
       sodipodi:cx="97.14286"
       sodipodi:cy="500.93362"
       sodipodi:r1="116.58403"
       sodipodi:r2="241.84663"
       sodipodi:arg1="-0.29849893"
       sodipodi:arg2="0.3298196"
       inkscape:flatsided="false"
       inkscape:rounded="0.13280381"
       inkscape:randomized="0"
       d="m 208.57143,466.64791 c 6.35306,20.64745 124.37925,92.17478 117.38272,112.61315 -6.99653,20.43838 -144.09663,4.63003 -161.77032,17.05256 C 146.51014,608.73616 114.95571,743.0889 93.355616,742.7506 71.75552,742.41231 44.423893,607.13732 27.147891,594.16742 9.8718894,581.19752 -127.65601,592.70475 -134.00908,572.0573 -140.36214,551.40985 -20.153914,483.61365 -13.157382,463.17528 -6.16085,442.73691 -59.603337,315.49603 -41.929648,303.07349 c 17.673688,-12.42253 119.298082,80.95211 140.898179,81.2904 21.600099,0.33829 126.098729,-89.80813 143.374729,-76.83822 17.276,12.9699 -40.12489,138.47479 -33.77183,159.12224 z"
       transform="matrix(0.16490915,0.11704768,-0.11704768,0.16490915,633.96951,613.95454)" />
    <path
       transform="matrix(0.09029005,0.01636527,-0.01636527,0.09029005,29.289541,495.93436)"
       sodipodi:type="star"
       style="fill:#555022;fill-opacity:1;stroke:#ff4917;stroke-width:106.85345804;stroke-linecap:butt;stroke-linejoin:miter;stroke-miterlimit:4;stroke-opacity:1;stroke-dasharray:none"
       id="path2991"
       sodipodi:sides="5"
       sodipodi:cx="-246.47722"
       sodipodi:cy="708.91034"
       sodipodi:r1="337.11865"
       sodipodi:r2="655.23749"
       sodipodi:arg1="1.3287246"
       sodipodi:arg2="2.0329682"
       inkscape:flatsided="false"
       inkscape:rounded="0.13280381"
       inkscape:randomized="0"
       d="m -165.665,1036.1998 c -59.4917,9.9607 -317.09081,281.9 -372.97814,259.2046 -50.26896,-20.4139 30.92417,-360.37571 5.86752,-408.49908 -27.85713,-53.50194 -366.08932,-214.45937 -361.7748,-274.62466 3.88079,-54.11686 352.29373,-81.95157 390.31884,-120.6528 42.27504,-43.02672 90.83516,-414.443231 149.38902,-428.931973 52.66742,-13.032184 186.80532,309.726813 235.36279,333.931513 53.984543,26.90996 422.22854,-41.68063 454.10228,9.53013 C 363.29198,452.22005 97.780827,679.5308 89.765875,733.19135 80.855123,792.84934 259.8823,1121.8745 221.02751,1168.0133 186.0788,1209.5137 -112.15403,1027.2404 -165.665,1036.1998 z"
       inkscape:transform-center-x="-2.1768363"
       inkscape:transform-center-y="-2.0196267" />
  </g>
</svg>
