<?xml version="1.0" encoding="UTF-8" standalone="no"?>
<!-- Created with Inkscape (http://www.inkscape.org/) -->

<svg
   xmlns:dc="http://purl.org/dc/elements/1.1/"
   xmlns:cc="http://creativecommons.org/ns#"
   xmlns:rdf="http://www.w3.org/1999/02/22-rdf-syntax-ns#"
   xmlns:svg="http://www.w3.org/2000/svg"
   xmlns="http://www.w3.org/2000/svg"
   xmlns:sodipodi="http://sodipodi.sourceforge.net/DTD/sodipodi-0.dtd"
   xmlns:inkscape="http://www.inkscape.org/namespaces/inkscape"
   width="744.09448819"
   height="1052.3622047"
   id="svg2"
   version="1.1"
   inkscape:version="0.48.2 r9819"
   sodipodi:docname="logo.svg"
   inkscape:export-filename="C:\Users\Ajay\Downloads\eclipse-jee-juno-SR1-win32-x86_64\projects\Lib-GDX\Bouncee\logo.png"
   inkscape:export-xdpi="186.14128"
   inkscape:export-ydpi="186.14128">
  <defs
     id="defs4">
    <filter
       inkscape:collect="always"
       id="filter4223"
       x="-0.40002792"
       width="1.8000558"
       y="-0.25307889"
       height="1.5061578">
      <feGaussianBlur
         inkscape:collect="always"
         stdDeviation="2.9064529"
         id="feGaussianBlur4225" />
    </filter>
    <filter
       inkscape:collect="always"
       id="filter4227"
       x="-0.60004188"
       width="2.2000838"
       y="-0.25193632"
       height="1.5038726">
      <feGaussianBlur
         inkscape:collect="always"
         stdDeviation="2.9064529"
         id="feGaussianBlur4229" />
    </filter>
    <filter
       inkscape:collect="always"
       id="filter4231"
       x="-0.35886749"
       width="1.717735"
       y="-0.36002513"
       height="1.7200503">
      <feGaussianBlur
         inkscape:collect="always"
         stdDeviation="2.9064529"
         id="feGaussianBlur4233" />
    </filter>
    <filter
       inkscape:collect="always"
       id="filter4235"
       x="-0.36002513"
       width="1.7200503"
       y="-0.35743078"
       height="1.7148616">
      <feGaussianBlur
         inkscape:collect="always"
         stdDeviation="2.9064529"
         id="feGaussianBlur4237" />
    </filter>
    <filter
       inkscape:collect="always"
       id="filter4239"
       x="-0.36236295"
       width="1.7247259"
       y="-0.36002513"
       height="1.7200503">
      <feGaussianBlur
         inkscape:collect="always"
         stdDeviation="2.9064529"
         id="feGaussianBlur4241" />
    </filter>
    <filter
       inkscape:collect="always"
       id="filter4243"
       x="-0.59365846"
       width="2.1873169"
       y="-0.25193632"
       height="1.5038726">
      <feGaussianBlur
         inkscape:collect="always"
         stdDeviation="2.9064529"
         id="feGaussianBlur4245" />
    </filter>
    <filter
       inkscape:collect="always"
       id="filter4247"
       x="-0.3732702"
       width="1.7465404"
       y="-0.36413635"
       height="1.7282727">
      <feGaussianBlur
         inkscape:collect="always"
         stdDeviation="2.9064529"
         id="feGaussianBlur4249" />
    </filter>
    <filter
       inkscape:collect="always"
       id="filter4251"
       x="-1.8601298"
       width="4.7202597"
       y="-1.8601298"
       height="4.7202597">
      <feGaussianBlur
         inkscape:collect="always"
         stdDeviation="2.9064529"
         id="feGaussianBlur4253" />
    </filter>
    <filter
       inkscape:collect="always"
       id="filter4255"
       x="-1.8296359"
       width="4.6592718"
       y="-0.28417"
       height="1.56834">
      <feGaussianBlur
         inkscape:collect="always"
         stdDeviation="2.9064529"
         id="feGaussianBlur4257" />
    </filter>
    <filter
       inkscape:collect="always"
       id="filter4259"
       x="-0.36002513"
       width="1.7200503"
       y="-0.36002513"
       height="1.7200503">
      <feGaussianBlur
         inkscape:collect="always"
         stdDeviation="2.9064529"
         id="feGaussianBlur4261" />
    </filter>
    <filter
       inkscape:collect="always"
       id="filter3935"
       x="-0.063008391"
       width="1.1260168"
       y="-0.14974279"
       height="1.2994856">
      <feGaussianBlur
         inkscape:collect="always"
         stdDeviation="3.6090353"
         id="feGaussianBlur3937" />
    </filter>
  </defs>
  <sodipodi:namedview
     id="base"
     pagecolor="#ffffff"
     bordercolor="#666666"
     borderopacity="1.0"
     inkscape:pageopacity="0.0"
     inkscape:pageshadow="2"
     inkscape:zoom="3.959798"
     inkscape:cx="194.52397"
     inkscape:cy="705.20753"
     inkscape:document-units="px"
     inkscape:current-layer="layer1"
     showgrid="false"
     inkscape:window-width="1366"
     inkscape:window-height="709"
     inkscape:window-x="-8"
     inkscape:window-y="760"
     inkscape:window-maximized="1" />
  <metadata
     id="metadata7">
    <rdf:RDF>
      <cc:Work
         rdf:about="">
        <dc:format>image/svg+xml</dc:format>
        <dc:type
           rdf:resource="http://purl.org/dc/dcmitype/StillImage" />
        <dc:title />
      </cc:Work>
    </rdf:RDF>
  </metadata>
  <g
     inkscape:label="Layer 1"
     inkscape:groupmode="layer"
     id="layer1">
    <g
       style="font-size:32px;font-style:normal;font-variant:normal;font-weight:normal;font-stretch:normal;line-height:125%;letter-spacing:0px;word-spacing:0px;fill:#171fe9;fill-opacity:1;stroke:none;font-family:Simple tfb;-inkscape-font-specification:Simple tfb"
       id="text2985">
      <g
         transform="matrix(0.58827331,0,0,0.58827331,-417.37982,66.079555)"
         id="g3099">
        <path
           id="path3101"
           transform="matrix(1.6998901,0,0,1.6998901,700.0503,-104.61716)"
           d="m 191.5,304.53125 c -34.46381,0 -63.09974,24.99293 -68.75,57.84375 l 137.46875,0 C 254.5685,329.52418 225.96381,304.53125 191.5,304.53125 z"
           style="opacity:0.75663715;fill:#000000;fill-opacity:1;stroke:none;filter:url(#filter3935)"
           inkscape:connector-curvature="0" />
      </g>
      <g
         id="g3170"
         transform="matrix(0.58827331,0,0,0.58827331,-484.80751,48.401885)">
        <path
           style="fill:#666666;fill-opacity:1;stroke:none"
           d="M 191.5 304.53125 C 157.03619 304.53125 128.40026 329.52418 122.75 362.375 L 260.21875 362.375 C 254.5685 329.52418 225.96381 304.53125 191.5 304.53125 z "
           transform="matrix(1.6998901,0,0,1.6998901,824.11951,-82.277887)"
           id="path3172" />
        <path
           style="fill:#444444;fill-opacity:1;stroke:#363636;stroke-width:8.67791557;stroke-linecap:butt;stroke-linejoin:miter;stroke-miterlimit:4;stroke-opacity:1"
           d="m 1105.125,484.26361 c -19.7481,0 -35.7508,16.0027 -35.7508,35.75081 0,3.26157 0.4568,6.45333 1.2749,9.45564 l 68.9518,0 c 0.8174,-3.0012 1.2749,-6.1954 1.2749,-9.45564 0,-19.74811 -16.0027,-35.75081 -35.7508,-35.75081 z"
           id="path3174"
           inkscape:connector-curvature="0" />
        <path
           style="fill:#444444;fill-opacity:1;stroke:#363636;stroke-width:6.91579819;stroke-linecap:butt;stroke-linejoin:miter;stroke-miterlimit:4;stroke-opacity:1;stroke-dasharray:none"
           d="m 1155.0419,437.79919 c -4.4864,5.94134 -7.1532,13.33618 -7.1532,21.35482 0,19.59233 15.8827,35.47505 35.475,35.47505 19.455,0 35.2546,-15.66521 35.4751,-35.06796 -18.1442,-12.89924 -40.0725,-20.81196 -63.7969,-21.76191 z"
           id="path3176"
           inkscape:connector-curvature="0" />
        <path
           style="fill:#333333;fill-opacity:1;stroke:none"
           d="M 191.96875 303.84375 C 157.1317 303.84375 128.25793 329.15158 122.59375 362.375 L 128.1875 362.375 C 133.77522 332.20789 160.18422 309.375 191.96875 309.375 C 223.75322 309.375 250.19352 332.20789 255.78125 362.375 L 261.375 362.375 C 255.71082 329.15158 226.8058 303.84375 191.96875 303.84375 z "
           transform="matrix(1.6998901,0,0,1.6998901,824.11951,-82.277887)"
           id="path3182" />
        <path
           style="fill:#444444;fill-opacity:1;stroke:#363636;stroke-width:8.42618465;stroke-linecap:butt;stroke-linejoin:miter;stroke-miterlimit:4;stroke-opacity:1"
           d="m 1199.6586,513.21486 c -12.3872,0 -23.2311,6.49295 -29.3762,16.2552 l 58.7524,0 c -6.1459,-9.75798 -16.9922,-16.2552 -29.3762,-16.2552 z"
           id="path3184"
           inkscape:connector-curvature="0" />
      </g>
      <path
         id="path3857"
         style="fill:#000000;fill-opacity:1;filter:url(#filter4251)"
         d="m 249.07593,353.80163 0.5,0 c 1.08333,0.28125 1.625,0.82292 1.625,1.625 l 0,0.5 c -0.28125,1.08333 -0.82292,1.625 -1.625,1.625 l -0.5,0 c -1.08333,-0.28125 -1.625,-0.82292 -1.625,-1.625 l 0,-0.5 c 0.28125,-1.08333 0.82292,-1.625 1.625,-1.625 z"
         inkscape:connector-curvature="0" />
      <g
         id="g4287"
         transform="translate(0.78825241,2.7472815)">
        <path
           style="fill:#000000;fill-opacity:1;filter:url(#filter4223)"
           d="m 106.57593,329.98913 8.3125,0 c 1.4479,3e-5 2.9479,0.70836 4.5,2.125 1.20832,1.45836 1.81248,2.91669 1.8125,4.375 l 0,0.9375 c -2e-5,1.16668 -0.52085,2.45835 -1.5625,3.875 -1.00001,1.04168 -1.83335,1.66668 -2.5,1.875 -0.94793,0.37501 -1.69793,0.56251 -2.25,0.5625 l -7.375,0 0,11.875 c -0.13542,1.29167 -0.78125,1.9375 -1.9375,1.9375 -1.04167,0 -1.64583,-0.64583 -1.8125,-1.9375 l 0,-23.5625 c 0,-0.91664 0.45833,-1.54164 1.375,-1.875 z m 0.9375,3.75 0,6.25 5.8125,0 c 1.87499,2e-5 2.96286,-0.50215 3.5,-1.375 0.30199,-0.49072 0.56249,-0.97915 0.5625,-1.625 l 0,-0.3125 c -1e-5,-1.35415 -0.83335,-2.31248 -2.5,-2.875 -0.54168,-0.0416 -0.97918,-0.0625 -1.3125,-0.0625 z"
           id="path3843"
           inkscape:connector-curvature="0"
           sodipodi:nodetypes="ccccccccccscscccccscscsc" />
        <path
           style="fill:#000000;fill-opacity:1;filter:url(#filter4227)"
           inkscape:connector-curvature="0"
           d="m 126.07593,329.86413 c 1.04166,3e-5 1.64583,0.64586 1.8125,1.9375 l 0,15.1875 c 0,2.70834 0.85416,4.60417 2.5625,5.6875 1.01041,0.75 2.26041,1.125 3.75,1.125 0.62499,0.17709 1.08332,0.51042 1.375,1 0.12499,0.375 0.18749,0.6875 0.1875,0.9375 -1e-5,1.04167 -0.64584,1.64583 -1.9375,1.8125 l -0.5,0 c -2.50001,0 -4.85417,-1.16667 -7.0625,-3.5 -1.41667,-1.98958 -2.125,-3.86458 -2.125,-5.625 l 0,-16.625 c 0.13542,-1.29164 0.78125,-1.93747 1.9375,-1.9375 z"
           id="path3845" />
        <path
           style="fill:#000000;fill-opacity:1;filter:url(#filter4231)"
           inkscape:connector-curvature="0"
           d="m 147.38843,338.17663 1.125,0 c 2.35415,2e-5 4.56249,1.02085 6.625,3.0625 1.3854,1.60418 2.1979,3.22918 2.4375,4.875 0.12498,0.61459 0.18748,1.65626 0.1875,3.125 l 0,6.375 c -0.13544,1.29167 -0.78127,1.9375 -1.9375,1.9375 -0.78127,0 -1.3646,-0.4375 -1.75,-1.3125 -0.0833,-0.1875 -0.12502,-0.39583 -0.125,-0.625 l -0.0625,0 c -1.81251,1.29167 -3.60418,1.9375 -5.375,1.9375 l -1,0 c -2.50001,0 -4.85417,-1.16667 -7.0625,-3.5 -1.41667,-1.98958 -2.125,-3.86458 -2.125,-5.625 l 0,-1.125 c 0,-2.18749 0.97917,-4.35415 2.9375,-6.5 2.10416,-1.74998 4.14583,-2.62498 6.125,-2.625 z m -5.3125,9.6875 c 0,1.80209 0.79166,3.36459 2.375,4.6875 1.06249,0.79167 2.16666,1.1875 3.3125,1.1875 l 0.5,0 c 2.10415,0 3.79165,-1.10416 5.0625,-3.3125 0.37498,-0.76041 0.56248,-1.57291 0.5625,-2.4375 l 0,-0.25 c -2e-5,-2.16666 -1.06251,-3.87499 -3.1875,-5.125 -0.96876,-0.45832 -1.86459,-0.68749 -2.6875,-0.6875 -2.02084,1e-5 -3.70834,0.95835 -5.0625,2.875 -0.58334,1.10418 -0.875,2.12501 -0.875,3.0625 z"
           id="path3847" />
        <path
           style="fill:#000000;fill-opacity:1;filter:url(#filter4235)"
           inkscape:connector-curvature="0"
           d="m 169.57593,338.036 1.125,0 c 1.86457,2e-5 3.78124,0.80731 5.75,2.42188 2.24998,2.3021 3.37498,4.8073 3.375,7.51562 l 0,7.64063 c -0.13544,1.25 -0.78127,1.875 -1.9375,1.875 -1.04168,0 -1.64585,-0.625 -1.8125,-1.875 l 0,-5.9375 c -2e-5,-2.60416 -0.47918,-4.46353 -1.4375,-5.57813 -1.32293,-1.61456 -2.82293,-2.42185 -4.5,-2.42187 -2.09376,2e-5 -3.80209,1.15106 -5.125,3.45312 -0.54167,0.91668 -0.8125,2.34897 -0.8125,4.29688 l 0,6.25 c -0.13542,1.25 -0.78125,1.875 -1.9375,1.875 -1.04167,0 -1.64583,-0.625 -1.8125,-1.875 l 0,-7.76563 c 0,-2.40623 0.95833,-4.72915 2.875,-6.96875 1.28125,-1.36456 2.96874,-2.29164 5.0625,-2.78125 0.49999,-0.0833 0.89582,-0.12498 1.1875,-0.125 z"
           id="path3849" />
        <path
           style="fill:#000000;fill-opacity:1;filter:url(#filter4239)"
           inkscape:connector-curvature="0"
           d="m 191.07593,338.17663 1,0 c 2.17707,2e-5 4.34374,0.97918 6.5,2.9375 -2e-5,0.0625 0.33332,0.47918 1,1.25 1.08331,1.71876 1.62498,3.48959 1.625,5.3125 -2e-5,0.75001 -0.52085,1.31251 -1.5625,1.6875 l -13.6875,0 0,0.0625 c 0.35416,1.28126 1.10416,2.36459 2.25,3.25 1.11458,0.75 2.36457,1.125 3.75,1.125 0.99999,0.34375 1.49999,0.98959 1.5,1.9375 -1e-5,1.04167 -0.64584,1.64583 -1.9375,1.8125 l -0.375,0 c -2.50001,0 -4.85417,-1.16667 -7.0625,-3.5 -1.41667,-1.98958 -2.125,-3.86458 -2.125,-5.625 l 0,-1.125 c 0,-2.12499 0.9375,-4.24999 2.8125,-6.375 2.11458,-1.83332 4.21874,-2.74998 6.3125,-2.75 z m -4.875,7.4375 10.75,0 0,-0.0625 c -1.26043,-2.37499 -2.9896,-3.56249 -5.1875,-3.5625 l -0.375,0 c -2.11459,1e-5 -3.80209,1.10418 -5.0625,3.3125 -0.0833,0.13543 -0.125,0.23959 -0.125,0.3125 z"
           id="path3851" />
        <path
           inkscape:connector-curvature="0"
           d="m 213.57593,329.86413 c 1.04166,3e-5 1.64583,0.64586 1.8125,1.9375 l 0,5.8125 3.0625,0 c 1.29166,0.13544 1.93749,0.78127 1.9375,1.9375 -1e-5,1.04168 -0.64584,1.64585 -1.9375,1.8125 l -3.0625,0 0,5.5625 c 0,3.11459 1.22916,5.23959 3.6875,6.375 0.54166,0.25 1.52082,0.4375 2.9375,0.5625 0.87499,0.36459 1.31249,0.98959 1.3125,1.875 -1e-5,1.04167 -0.64584,1.64583 -1.9375,1.8125 l -0.5,0 c -2.35417,0 -4.5625,-1.02083 -6.625,-3.0625 -1.38542,-1.61458 -2.21875,-3.28124 -2.5,-5 -0.0833,-0.97916 -0.125,-2.06249 -0.125,-3.25 l 0,-5.5 c 0,-0.54165 -0.0208,-0.95832 -0.0625,-1.25 0.0417,-0.29165 0.0625,-0.70832 0.0625,-1.25 l 0,-6.4375 c 0.13542,-1.29164 0.78125,-1.93747 1.9375,-1.9375 z"
           style="fill:#000000;fill-opacity:1;filter:url(#filter4243)"
           id="path3853" />
        <path
           inkscape:connector-curvature="0"
           d="m 231.01343,338.39538 11.3125,0 c 1.29165,0.13543 1.93748,0.75523 1.9375,1.85937 -2e-5,0.9896 -0.64585,1.56773 -1.9375,1.73438 l -10.0625,0 c -1.52084,1e-5 -2.4375,0.43751 -2.75,1.3125 -0.0833,0.26043 -0.125,0.44272 -0.125,0.54687 l 0,0.46875 c 0,0.68752 0.45833,1.25002 1.375,1.6875 0.23958,0.1146 0.78124,0.17189 1.625,0.17188 l 6.625,0 c 1.35415,1e-5 2.72915,0.73959 4.125,2.21875 0.74998,1.08334 1.12498,2.06251 1.125,2.9375 l 0,1.07812 c -2e-5,1.56251 -0.89585,2.9948 -2.6875,4.29688 -1.01043,0.5625 -1.90626,0.84375 -2.6875,0.84375 l -11.625,0 c -0.73958,0 -1.30208,-0.47917 -1.6875,-1.4375 l 0,-0.53125 c 0,-0.71875 0.5,-1.26041 1.5,-1.625 l 10.375,0 c 1.36457,0 2.23957,-0.31771 2.625,-0.95313 0.24999,-0.36457 0.37499,-0.74478 0.375,-1.14062 -1e-5,-0.94791 -0.54168,-1.60416 -1.625,-1.96875 -0.16668,-0.0417 -0.31251,-0.0625 -0.4375,-0.0625 -1.01043,1e-5 -3.55209,-0.0208 -7.625,-0.0625 -1.08334,-0.13541 -2.16667,-0.59374 -3.25,-1.375 -1.29167,-1.33332 -1.9375,-2.60936 -1.9375,-3.82813 l 0,-0.96875 c 0,-1.54165 0.85417,-2.95831 2.5625,-4.25 1.05208,-0.63539 2.01041,-0.9531 2.875,-0.95312 z"
           style="fill:#000000;fill-opacity:1;filter:url(#filter4247)"
           id="path3855" />
        <path
           inkscape:connector-curvature="0"
           d="m 257.23218,338.23913 c 1.04166,2e-5 1.64583,0.64585 1.8125,1.9375 l 0,15.4375 c -0.13542,1.29167 -0.78125,1.9375 -1.9375,1.9375 -1.04167,0 -1.64583,-0.64583 -1.8125,-1.9375 l 0,-15.4375 c 0.13542,-1.29165 0.78125,-1.93748 1.9375,-1.9375 z m -0.375,-5.23438 0.5,0 c 1.08333,0.28128 1.625,0.82294 1.625,1.625 l 0,0.5 c -0.28125,1.08336 -0.82292,1.62502 -1.625,1.625 l -0.5,0 c -1.08333,-0.28122 -1.625,-0.82289 -1.625,-1.625 l 0,-0.5 c 0.28125,-1.08331 0.82292,-1.62497 1.625,-1.625 z"
           style="fill:#000000;fill-opacity:1;filter:url(#filter4255)"
           id="path3859" />
        <path
           inkscape:connector-curvature="0"
           d="m 271.45093,338.17663 1.125,0 c 2.40624,2e-5 4.65624,1.06252 6.75,3.1875 1.62498,1.97918 2.43748,3.97918 2.4375,6 l 0,1 c -2e-5,2.38542 -1.06252,4.63542 -3.1875,6.75 -1.9896,1.625 -3.9896,2.4375 -6,2.4375 l -1,0 c -2.50001,0 -4.85417,-1.16667 -7.0625,-3.5 -1.41667,-1.98958 -2.125,-3.86458 -2.125,-5.625 l 0,-1.125 c 0,-2.18749 0.97917,-4.35415 2.9375,-6.5 2.10416,-1.74998 4.14583,-2.62498 6.125,-2.625 z m -5.3125,9.6875 c 0,1.80209 0.79166,3.36459 2.375,4.6875 1.06249,0.79167 2.16666,1.1875 3.3125,1.1875 l 0.5,0 c 2.10415,0 3.79165,-1.10416 5.0625,-3.3125 0.37498,-0.76041 0.56248,-1.57291 0.5625,-2.4375 l 0,-0.25 c -2e-5,-2.16666 -1.06251,-3.87499 -3.1875,-5.125 -0.96876,-0.45832 -1.86459,-0.68749 -2.6875,-0.6875 -2.02084,1e-5 -3.70834,0.95835 -5.0625,2.875 -0.58334,1.10418 -0.875,2.12501 -0.875,3.0625 z"
           style="fill:#000000;fill-opacity:1;filter:url(#filter4259)"
           id="path3861" />
      </g>
      <g
         id="g5006"
         transform="translate(-1.0101526,2.5253814)">
        <path
           d="m 111.12162,326.95868 8.3125,0 c 1.4479,3e-5 2.9479,0.70836 4.5,2.125 1.20832,1.45836 1.81248,2.91669 1.8125,4.375 l 0,0.9375 c -2e-5,1.16668 -0.52085,2.45835 -1.5625,3.875 -1.00001,1.04168 -1.83335,1.66668 -2.5,1.875 -0.94793,0.37501 -1.69793,0.56251 -2.25,0.5625 l -7.375,0 0,11.875 c -0.13542,1.29167 -0.78125,1.9375 -1.9375,1.9375 -1.04167,0 -1.64583,-0.64583 -1.8125,-1.9375 l 0,-23.5625 c 0,-0.91664 0.45833,-1.54164 1.375,-1.875 z m 0.9375,3.75 0,6.25 5.8125,0 c 1.87499,2e-5 2.96286,-0.50215 3.5,-1.375 0.30199,-0.49072 0.56249,-0.97915 0.5625,-1.625 l 0,-0.3125 c -10e-6,-1.35415 -0.83335,-2.31248 -2.5,-2.875 -0.54168,-0.0416 -0.97918,-0.0625 -1.3125,-0.0625 z"
           id="path5008"
           inkscape:connector-curvature="0"
           sodipodi:nodetypes="ccccccccccscscccccscscsc"
           style="fill:#091b56;fill-opacity:1" />
        <path
           d="m 130.62162,326.83368 c 1.04166,3e-5 1.64583,0.64586 1.8125,1.9375 l 0,15.1875 c 0,2.70834 0.85416,4.60417 2.5625,5.6875 1.01041,0.75 2.26041,1.125 3.75,1.125 0.62499,0.17709 1.08332,0.51042 1.375,1 0.12499,0.375 0.18749,0.6875 0.1875,0.9375 -1e-5,1.04167 -0.64584,1.64583 -1.9375,1.8125 l -0.5,0 c -2.50001,0 -4.85417,-1.16667 -7.0625,-3.5 -1.41667,-1.98958 -2.125,-3.86458 -2.125,-5.625 l 0,-16.625 c 0.13542,-1.29164 0.78125,-1.93747 1.9375,-1.9375 z"
           id="path5010"
           inkscape:connector-curvature="0"
           style="fill:#091b56;fill-opacity:1" />
        <path
           d="m 151.93412,335.14618 1.125,0 c 2.35415,2e-5 4.56249,1.02085 6.625,3.0625 1.3854,1.60418 2.1979,3.22918 2.4375,4.875 0.12498,0.61459 0.18748,1.65626 0.1875,3.125 l 0,6.375 c -0.13544,1.29167 -0.78127,1.9375 -1.9375,1.9375 -0.78127,0 -1.3646,-0.4375 -1.75,-1.3125 -0.0833,-0.1875 -0.12502,-0.39583 -0.125,-0.625 l -0.0625,0 c -1.81251,1.29167 -3.60418,1.9375 -5.375,1.9375 l -1,0 c -2.50001,0 -4.85417,-1.16667 -7.0625,-3.5 -1.41667,-1.98958 -2.125,-3.86458 -2.125,-5.625 l 0,-1.125 c 0,-2.18749 0.97917,-4.35415 2.9375,-6.5 2.10416,-1.74998 4.14583,-2.62498 6.125,-2.625 z m -5.3125,9.6875 c 0,1.80209 0.79166,3.36459 2.375,4.6875 1.06249,0.79167 2.16666,1.1875 3.3125,1.1875 l 0.5,0 c 2.10415,0 3.79165,-1.10416 5.0625,-3.3125 0.37498,-0.76041 0.56248,-1.57291 0.5625,-2.4375 l 0,-0.25 c -2e-5,-2.16666 -1.06251,-3.87499 -3.1875,-5.125 -0.96876,-0.45832 -1.86459,-0.68749 -2.6875,-0.6875 -2.02084,10e-6 -3.70834,0.95835 -5.0625,2.875 -0.58334,1.10418 -0.875,2.12501 -0.875,3.0625 z"
           id="path5012"
           inkscape:connector-curvature="0"
           style="fill:#091b56;fill-opacity:1" />
        <path
           d="m 174.12162,335.00555 1.125,0 c 1.86457,2e-5 3.78124,0.80731 5.75,2.42188 2.24998,2.3021 3.37498,4.8073 3.375,7.51562 l 0,7.64063 c -0.13544,1.25 -0.78127,1.875 -1.9375,1.875 -1.04168,0 -1.64585,-0.625 -1.8125,-1.875 l 0,-5.9375 c -2e-5,-2.60416 -0.47918,-4.46353 -1.4375,-5.57813 -1.32293,-1.61456 -2.82293,-2.42185 -4.5,-2.42187 -2.09376,2e-5 -3.80209,1.15106 -5.125,3.45312 -0.54167,0.91668 -0.8125,2.34897 -0.8125,4.29688 l 0,6.25 c -0.13542,1.25 -0.78125,1.875 -1.9375,1.875 -1.04167,0 -1.64583,-0.625 -1.8125,-1.875 l 0,-7.76563 c 0,-2.40623 0.95833,-4.72915 2.875,-6.96875 1.28125,-1.36456 2.96874,-2.29164 5.0625,-2.78125 0.49999,-0.0833 0.89582,-0.12498 1.1875,-0.125 z"
           id="path5014"
           inkscape:connector-curvature="0"
           style="fill:#091b56;fill-opacity:1" />
        <path
           d="m 195.62162,335.14618 1,0 c 2.17707,2e-5 4.34374,0.97918 6.5,2.9375 -2e-5,0.0625 0.33332,0.47918 1,1.25 1.08331,1.71876 1.62498,3.48959 1.625,5.3125 -2e-5,0.75001 -0.52085,1.31251 -1.5625,1.6875 l -13.6875,0 0,0.0625 c 0.35416,1.28126 1.10416,2.36459 2.25,3.25 1.11458,0.75 2.36457,1.125 3.75,1.125 0.99999,0.34375 1.49999,0.98959 1.5,1.9375 -1e-5,1.04167 -0.64584,1.64583 -1.9375,1.8125 l -0.375,0 c -2.50001,0 -4.85417,-1.16667 -7.0625,-3.5 -1.41667,-1.98958 -2.125,-3.86458 -2.125,-5.625 l 0,-1.125 c 0,-2.12499 0.9375,-4.24999 2.8125,-6.375 2.11458,-1.83332 4.21874,-2.74998 6.3125,-2.75 z m -4.875,7.4375 10.75,0 0,-0.0625 c -1.26043,-2.37499 -2.9896,-3.56249 -5.1875,-3.5625 l -0.375,0 c -2.11459,10e-6 -3.80209,1.10418 -5.0625,3.3125 -0.0833,0.13543 -0.125,0.23959 -0.125,0.3125 z"
           id="path5016"
           inkscape:connector-curvature="0"
           style="fill:#091b56;fill-opacity:1" />
        <path
           d="m 210.05912,350.77118 0.5,0 c 1.08333,0.28125 1.625,0.82292 1.625,1.625 l 0,0.5 c -0.28125,1.08333 -0.82292,1.625 -1.625,1.625 l -0.5,0 c -1.08333,-0.28125 -1.625,-0.82292 -1.625,-1.625 l 0,-0.5 c 0.28125,-1.08333 0.82292,-1.625 1.625,-1.625 z"
           id="path5018"
           inkscape:connector-curvature="0"
           style="fill:#091b56;fill-opacity:1" />
        <path
           d="m 218.12162,326.83368 c 1.04166,3e-5 1.64583,0.64586 1.8125,1.9375 l 0,5.8125 3.0625,0 c 1.29166,0.13544 1.93749,0.78127 1.9375,1.9375 -1e-5,1.04168 -0.64584,1.64585 -1.9375,1.8125 l -3.0625,0 0,5.5625 c 0,3.11459 1.22916,5.23959 3.6875,6.375 0.54166,0.25 1.52082,0.4375 2.9375,0.5625 0.87499,0.36459 1.31249,0.98959 1.3125,1.875 -1e-5,1.04167 -0.64584,1.64583 -1.9375,1.8125 l -0.5,0 c -2.35417,0 -4.5625,-1.02083 -6.625,-3.0625 -1.38542,-1.61458 -2.21875,-3.28124 -2.5,-5 -0.0833,-0.97916 -0.125,-2.06249 -0.125,-3.25 l 0,-5.5 c 0,-0.54165 -0.0208,-0.95832 -0.0625,-1.25 0.0417,-0.29165 0.0625,-0.70832 0.0625,-1.25 l 0,-6.4375 c 0.13542,-1.29164 0.78125,-1.93747 1.9375,-1.9375 z"
           style="fill:#091b56;fill-opacity:1"
           id="path5020"
           inkscape:connector-curvature="0" />
        <path
           d="m 235.55912,335.36493 11.3125,0 c 1.29165,0.13543 1.93748,0.75523 1.9375,1.85937 -2e-5,0.9896 -0.64585,1.56773 -1.9375,1.73438 l -10.0625,0 c -1.52084,10e-6 -2.4375,0.43751 -2.75,1.3125 -0.0833,0.26043 -0.125,0.44272 -0.125,0.54687 l 0,0.46875 c 0,0.68752 0.45833,1.25002 1.375,1.6875 0.23958,0.1146 0.78124,0.17189 1.625,0.17188 l 6.625,0 c 1.35415,10e-6 2.72915,0.73959 4.125,2.21875 0.74998,1.08334 1.12498,2.06251 1.125,2.9375 l 0,1.07812 c -2e-5,1.56251 -0.89585,2.9948 -2.6875,4.29688 -1.01043,0.5625 -1.90626,0.84375 -2.6875,0.84375 l -11.625,0 c -0.73958,0 -1.30208,-0.47917 -1.6875,-1.4375 l 0,-0.53125 c 0,-0.71875 0.5,-1.26041 1.5,-1.625 l 10.375,0 c 1.36457,0 2.23957,-0.31771 2.625,-0.95313 0.24999,-0.36457 0.37499,-0.74478 0.375,-1.14062 -1e-5,-0.94791 -0.54168,-1.60416 -1.625,-1.96875 -0.16668,-0.0417 -0.31251,-0.0625 -0.4375,-0.0625 -1.01043,10e-6 -3.55209,-0.0208 -7.625,-0.0625 -1.08334,-0.13541 -2.16667,-0.59374 -3.25,-1.375 -1.29167,-1.33332 -1.9375,-2.60936 -1.9375,-3.82813 l 0,-0.96875 c 0,-1.54165 0.85417,-2.95831 2.5625,-4.25 1.05208,-0.63539 2.01041,-0.9531 2.875,-0.95312 z"
           style="fill:#091b56;fill-opacity:1"
           id="path5022"
           inkscape:connector-curvature="0" />
        <path
           d="m 253.62162,350.77118 0.5,0 c 1.08333,0.28125 1.625,0.82292 1.625,1.625 l 0,0.5 c -0.28125,1.08333 -0.82292,1.625 -1.625,1.625 l -0.5,0 c -1.08333,-0.28125 -1.625,-0.82292 -1.625,-1.625 l 0,-0.5 c 0.28125,-1.08333 0.82292,-1.625 1.625,-1.625 z"
           style="fill:#560909;fill-opacity:1"
           id="path5024"
           inkscape:connector-curvature="0" />
        <path
           d="m 261.77787,335.20868 c 1.04166,2e-5 1.64583,0.64585 1.8125,1.9375 l 0,15.4375 c -0.13542,1.29167 -0.78125,1.9375 -1.9375,1.9375 -1.04167,0 -1.64583,-0.64583 -1.8125,-1.9375 l 0,-15.4375 c 0.13542,-1.29165 0.78125,-1.93748 1.9375,-1.9375 z m -0.375,-5.23438 0.5,0 c 1.08333,0.28128 1.625,0.82294 1.625,1.625 l 0,0.5 c -0.28125,1.08336 -0.82292,1.62502 -1.625,1.625 l -0.5,0 c -1.08333,-0.28122 -1.625,-0.82289 -1.625,-1.625 l 0,-0.5 c 0.28125,-1.08331 0.82292,-1.62497 1.625,-1.625 z"
           style="fill:#560909;fill-opacity:1"
           id="path5026"
           inkscape:connector-curvature="0" />
        <path
           d="m 275.99662,335.14618 1.125,0 c 2.40624,2e-5 4.65624,1.06252 6.75,3.1875 1.62498,1.97918 2.43748,3.97918 2.4375,6 l 0,1 c -2e-5,2.38542 -1.06252,4.63542 -3.1875,6.75 -1.9896,1.625 -3.9896,2.4375 -6,2.4375 l -1,0 c -2.50001,0 -4.85417,-1.16667 -7.0625,-3.5 -1.41667,-1.98958 -2.125,-3.86458 -2.125,-5.625 l 0,-1.125 c 0,-2.18749 0.97917,-4.35415 2.9375,-6.5 2.10416,-1.74998 4.14583,-2.62498 6.125,-2.625 z m -5.3125,9.6875 c 0,1.80209 0.79166,3.36459 2.375,4.6875 1.06249,0.79167 2.16666,1.1875 3.3125,1.1875 l 0.5,0 c 2.10415,0 3.79165,-1.10416 5.0625,-3.3125 0.37498,-0.76041 0.56248,-1.57291 0.5625,-2.4375 l 0,-0.25 c -2e-5,-2.16666 -1.06251,-3.87499 -3.1875,-5.125 -0.96876,-0.45832 -1.86459,-0.68749 -2.6875,-0.6875 -2.02084,10e-6 -3.70834,0.95835 -5.0625,2.875 -0.58334,1.10418 -0.875,2.12501 -0.875,3.0625 z"
           style="fill:#560909;fill-opacity:1"
           id="path5028"
           inkscape:connector-curvature="0" />
      </g>
      <g
         id="g4274">
        <path
           sodipodi:nodetypes="ccccccccccscscccccscscsc"
           inkscape:connector-curvature="0"
           id="path3778"
           d="m 111.12162,326.95868 8.3125,0 c 1.4479,3e-5 2.9479,0.70836 4.5,2.125 1.20832,1.45836 1.81248,2.91669 1.8125,4.375 l 0,0.9375 c -2e-5,1.16668 -0.52085,2.45835 -1.5625,3.875 -1.00001,1.04168 -1.83335,1.66668 -2.5,1.875 -0.94793,0.37501 -1.69793,0.56251 -2.25,0.5625 l -7.375,0 0,11.875 c -0.13542,1.29167 -0.78125,1.9375 -1.9375,1.9375 -1.04167,0 -1.64583,-0.64583 -1.8125,-1.9375 l 0,-23.5625 c 0,-0.91664 0.45833,-1.54164 1.375,-1.875 z m 0.9375,3.75 0,6.25 5.8125,0 c 1.87499,2e-5 2.96286,-0.50215 3.5,-1.375 0.30199,-0.49072 0.56249,-0.97915 0.5625,-1.625 l 0,-0.3125 c -10e-6,-1.35415 -0.83335,-2.31248 -2.5,-2.875 -0.54168,-0.0416 -0.97918,-0.0625 -1.3125,-0.0625 z" />
        <path
           id="path3780"
           d="m 130.62162,326.83368 c 1.04166,3e-5 1.64583,0.64586 1.8125,1.9375 l 0,15.1875 c 0,2.70834 0.85416,4.60417 2.5625,5.6875 1.01041,0.75 2.26041,1.125 3.75,1.125 0.62499,0.17709 1.08332,0.51042 1.375,1 0.12499,0.375 0.18749,0.6875 0.1875,0.9375 -1e-5,1.04167 -0.64584,1.64583 -1.9375,1.8125 l -0.5,0 c -2.50001,0 -4.85417,-1.16667 -7.0625,-3.5 -1.41667,-1.98958 -2.125,-3.86458 -2.125,-5.625 l 0,-16.625 c 0.13542,-1.29164 0.78125,-1.93747 1.9375,-1.9375 z"
           style="" />
        <path
           id="path3782"
           d="m 151.93412,335.14618 1.125,0 c 2.35415,2e-5 4.56249,1.02085 6.625,3.0625 1.3854,1.60418 2.1979,3.22918 2.4375,4.875 0.12498,0.61459 0.18748,1.65626 0.1875,3.125 l 0,6.375 c -0.13544,1.29167 -0.78127,1.9375 -1.9375,1.9375 -0.78127,0 -1.3646,-0.4375 -1.75,-1.3125 -0.0833,-0.1875 -0.12502,-0.39583 -0.125,-0.625 l -0.0625,0 c -1.81251,1.29167 -3.60418,1.9375 -5.375,1.9375 l -1,0 c -2.50001,0 -4.85417,-1.16667 -7.0625,-3.5 -1.41667,-1.98958 -2.125,-3.86458 -2.125,-5.625 l 0,-1.125 c 0,-2.18749 0.97917,-4.35415 2.9375,-6.5 2.10416,-1.74998 4.14583,-2.62498 6.125,-2.625 z m -5.3125,9.6875 c 0,1.80209 0.79166,3.36459 2.375,4.6875 1.06249,0.79167 2.16666,1.1875 3.3125,1.1875 l 0.5,0 c 2.10415,0 3.79165,-1.10416 5.0625,-3.3125 0.37498,-0.76041 0.56248,-1.57291 0.5625,-2.4375 l 0,-0.25 c -2e-5,-2.16666 -1.06251,-3.87499 -3.1875,-5.125 -0.96876,-0.45832 -1.86459,-0.68749 -2.6875,-0.6875 -2.02084,10e-6 -3.70834,0.95835 -5.0625,2.875 -0.58334,1.10418 -0.875,2.12501 -0.875,3.0625 z"
           style="" />
        <path
           id="path3784"
           d="m 174.12162,335.00555 1.125,0 c 1.86457,2e-5 3.78124,0.80731 5.75,2.42188 2.24998,2.3021 3.37498,4.8073 3.375,7.51562 l 0,7.64063 c -0.13544,1.25 -0.78127,1.875 -1.9375,1.875 -1.04168,0 -1.64585,-0.625 -1.8125,-1.875 l 0,-5.9375 c -2e-5,-2.60416 -0.47918,-4.46353 -1.4375,-5.57813 -1.32293,-1.61456 -2.82293,-2.42185 -4.5,-2.42187 -2.09376,2e-5 -3.80209,1.15106 -5.125,3.45312 -0.54167,0.91668 -0.8125,2.34897 -0.8125,4.29688 l 0,6.25 c -0.13542,1.25 -0.78125,1.875 -1.9375,1.875 -1.04167,0 -1.64583,-0.625 -1.8125,-1.875 l 0,-7.76563 c 0,-2.40623 0.95833,-4.72915 2.875,-6.96875 1.28125,-1.36456 2.96874,-2.29164 5.0625,-2.78125 0.49999,-0.0833 0.89582,-0.12498 1.1875,-0.125 z"
           style="" />
        <path
           id="path3786"
           d="m 195.62162,335.14618 1,0 c 2.17707,2e-5 4.34374,0.97918 6.5,2.9375 -2e-5,0.0625 0.33332,0.47918 1,1.25 1.08331,1.71876 1.62498,3.48959 1.625,5.3125 -2e-5,0.75001 -0.52085,1.31251 -1.5625,1.6875 l -13.6875,0 0,0.0625 c 0.35416,1.28126 1.10416,2.36459 2.25,3.25 1.11458,0.75 2.36457,1.125 3.75,1.125 0.99999,0.34375 1.49999,0.98959 1.5,1.9375 -1e-5,1.04167 -0.64584,1.64583 -1.9375,1.8125 l -0.375,0 c -2.50001,0 -4.85417,-1.16667 -7.0625,-3.5 -1.41667,-1.98958 -2.125,-3.86458 -2.125,-5.625 l 0,-1.125 c 0,-2.12499 0.9375,-4.24999 2.8125,-6.375 2.11458,-1.83332 4.21874,-2.74998 6.3125,-2.75 z m -4.875,7.4375 10.75,0 0,-0.0625 c -1.26043,-2.37499 -2.9896,-3.56249 -5.1875,-3.5625 l -0.375,0 c -2.11459,10e-6 -3.80209,1.10418 -5.0625,3.3125 -0.0833,0.13543 -0.125,0.23959 -0.125,0.3125 z"
           style="" />
        <path
           id="path3788"
           d="m 210.05912,350.77118 0.5,0 c 1.08333,0.28125 1.625,0.82292 1.625,1.625 l 0,0.5 c -0.28125,1.08333 -0.82292,1.625 -1.625,1.625 l -0.5,0 c -1.08333,-0.28125 -1.625,-0.82292 -1.625,-1.625 l 0,-0.5 c 0.28125,-1.08333 0.82292,-1.625 1.625,-1.625 z"
           style="" />
        <path
           id="path3790"
           style="fill:#171fe9;fill-opacity:1"
           d="m 218.12162,326.83368 c 1.04166,3e-5 1.64583,0.64586 1.8125,1.9375 l 0,5.8125 3.0625,0 c 1.29166,0.13544 1.93749,0.78127 1.9375,1.9375 -1e-5,1.04168 -0.64584,1.64585 -1.9375,1.8125 l -3.0625,0 0,5.5625 c 0,3.11459 1.22916,5.23959 3.6875,6.375 0.54166,0.25 1.52082,0.4375 2.9375,0.5625 0.87499,0.36459 1.31249,0.98959 1.3125,1.875 -1e-5,1.04167 -0.64584,1.64583 -1.9375,1.8125 l -0.5,0 c -2.35417,0 -4.5625,-1.02083 -6.625,-3.0625 -1.38542,-1.61458 -2.21875,-3.28124 -2.5,-5 -0.0833,-0.97916 -0.125,-2.06249 -0.125,-3.25 l 0,-5.5 c 0,-0.54165 -0.0208,-0.95832 -0.0625,-1.25 0.0417,-0.29165 0.0625,-0.70832 0.0625,-1.25 l 0,-6.4375 c 0.13542,-1.29164 0.78125,-1.93747 1.9375,-1.9375 z" />
        <path
           id="path3792"
           style="fill:#171fe9;fill-opacity:1"
           d="m 235.55912,335.36493 11.3125,0 c 1.29165,0.13543 1.93748,0.75523 1.9375,1.85937 -2e-5,0.9896 -0.64585,1.56773 -1.9375,1.73438 l -10.0625,0 c -1.52084,10e-6 -2.4375,0.43751 -2.75,1.3125 -0.0833,0.26043 -0.125,0.44272 -0.125,0.54687 l 0,0.46875 c 0,0.68752 0.45833,1.25002 1.375,1.6875 0.23958,0.1146 0.78124,0.17189 1.625,0.17188 l 6.625,0 c 1.35415,10e-6 2.72915,0.73959 4.125,2.21875 0.74998,1.08334 1.12498,2.06251 1.125,2.9375 l 0,1.07812 c -2e-5,1.56251 -0.89585,2.9948 -2.6875,4.29688 -1.01043,0.5625 -1.90626,0.84375 -2.6875,0.84375 l -11.625,0 c -0.73958,0 -1.30208,-0.47917 -1.6875,-1.4375 l 0,-0.53125 c 0,-0.71875 0.5,-1.26041 1.5,-1.625 l 10.375,0 c 1.36457,0 2.23957,-0.31771 2.625,-0.95313 0.24999,-0.36457 0.37499,-0.74478 0.375,-1.14062 -1e-5,-0.94791 -0.54168,-1.60416 -1.625,-1.96875 -0.16668,-0.0417 -0.31251,-0.0625 -0.4375,-0.0625 -1.01043,10e-6 -3.55209,-0.0208 -7.625,-0.0625 -1.08334,-0.13541 -2.16667,-0.59374 -3.25,-1.375 -1.29167,-1.33332 -1.9375,-2.60936 -1.9375,-3.82813 l 0,-0.96875 c 0,-1.54165 0.85417,-2.95831 2.5625,-4.25 1.05208,-0.63539 2.01041,-0.9531 2.875,-0.95312 z" />
        <path
           id="path3794"
           style="fill:#ac1212;fill-opacity:1"
           d="m 253.62162,350.77118 0.5,0 c 1.08333,0.28125 1.625,0.82292 1.625,1.625 l 0,0.5 c -0.28125,1.08333 -0.82292,1.625 -1.625,1.625 l -0.5,0 c -1.08333,-0.28125 -1.625,-0.82292 -1.625,-1.625 l 0,-0.5 c 0.28125,-1.08333 0.82292,-1.625 1.625,-1.625 z" />
        <path
           id="path3796"
           style="fill:#ac1212;fill-opacity:1"
           d="m 261.77787,335.20868 c 1.04166,2e-5 1.64583,0.64585 1.8125,1.9375 l 0,15.4375 c -0.13542,1.29167 -0.78125,1.9375 -1.9375,1.9375 -1.04167,0 -1.64583,-0.64583 -1.8125,-1.9375 l 0,-15.4375 c 0.13542,-1.29165 0.78125,-1.93748 1.9375,-1.9375 z m -0.375,-5.23438 0.5,0 c 1.08333,0.28128 1.625,0.82294 1.625,1.625 l 0,0.5 c -0.28125,1.08336 -0.82292,1.62502 -1.625,1.625 l -0.5,0 c -1.08333,-0.28122 -1.625,-0.82289 -1.625,-1.625 l 0,-0.5 c 0.28125,-1.08331 0.82292,-1.62497 1.625,-1.625 z" />
        <path
           id="path3798"
           style="fill:#ac1212;fill-opacity:1"
           d="m 275.99662,335.14618 1.125,0 c 2.40624,2e-5 4.65624,1.06252 6.75,3.1875 1.62498,1.97918 2.43748,3.97918 2.4375,6 l 0,1 c -2e-5,2.38542 -1.06252,4.63542 -3.1875,6.75 -1.9896,1.625 -3.9896,2.4375 -6,2.4375 l -1,0 c -2.50001,0 -4.85417,-1.16667 -7.0625,-3.5 -1.41667,-1.98958 -2.125,-3.86458 -2.125,-5.625 l 0,-1.125 c 0,-2.18749 0.97917,-4.35415 2.9375,-6.5 2.10416,-1.74998 4.14583,-2.62498 6.125,-2.625 z m -5.3125,9.6875 c 0,1.80209 0.79166,3.36459 2.375,4.6875 1.06249,0.79167 2.16666,1.1875 3.3125,1.1875 l 0.5,0 c 2.10415,0 3.79165,-1.10416 5.0625,-3.3125 0.37498,-0.76041 0.56248,-1.57291 0.5625,-2.4375 l 0,-0.25 c -2e-5,-2.16666 -1.06251,-3.87499 -3.1875,-5.125 -0.96876,-0.45832 -1.86459,-0.68749 -2.6875,-0.6875 -2.02084,10e-6 -3.70834,0.95835 -5.0625,2.875 -0.58334,1.10418 -0.875,2.12501 -0.875,3.0625 z" />
      </g>
    </g>
    <text
       xml:space="preserve"
       style="font-size:32px;font-style:normal;font-variant:normal;font-weight:normal;font-stretch:normal;line-height:125%;letter-spacing:0px;word-spacing:0px;fill:#000000;fill-opacity:1;stroke:none;font-family:Simple tfb;-inkscape-font-specification:Simple tfb"
       x="208.34396"
       y="347.2757"
       id="text2989"
       sodipodi:linespacing="125%"><tspan
         sodipodi:role="line"
         id="tspan2991"
         x="208.34396"
         y="347.2757" /></text>
  </g>
</svg>
