<?xml version="1.0" encoding="UTF-8" standalone="no"?>
<!-- Created with Inkscape (http://www.inkscape.org/) -->

<svg
   xmlns:dc="http://purl.org/dc/elements/1.1/"
   xmlns:cc="http://creativecommons.org/ns#"
   xmlns:rdf="http://www.w3.org/1999/02/22-rdf-syntax-ns#"
   xmlns:svg="http://www.w3.org/2000/svg"
   xmlns="http://www.w3.org/2000/svg"
   xmlns:sodipodi="http://sodipodi.sourceforge.net/DTD/sodipodi-0.dtd"
   xmlns:inkscape="http://www.inkscape.org/namespaces/inkscape"
   width="744.09448819"
   height="1052.3622047"
   id="svg2"
   version="1.1"
   inkscape:version="0.48.2 r9819"
   sodipodi:docname="planet arrows.svg">
  <defs
     id="defs4" />
  <sodipodi:namedview
     id="base"
     pagecolor="#ffffff"
     bordercolor="#666666"
     borderopacity="1.0"
     inkscape:pageopacity="0.0"
     inkscape:pageshadow="2"
     inkscape:zoom="0.57033098"
     inkscape:cx="664.68435"
     inkscape:cy="545.65006"
     inkscape:document-units="px"
     inkscape:current-layer="layer1"
     showgrid="false"
     inkscape:window-width="1366"
     inkscape:window-height="709"
     inkscape:window-x="-8"
     inkscape:window-y="760"
     inkscape:window-maximized="1" />
  <metadata
     id="metadata7">
    <rdf:RDF>
      <cc:Work
         rdf:about="">
        <dc:format>image/svg+xml</dc:format>
        <dc:type
           rdf:resource="http://purl.org/dc/dcmitype/StillImage" />
        <dc:title></dc:title>
      </cc:Work>
    </rdf:RDF>
  </metadata>
  <g
     inkscape:label="Layer 1"
     inkscape:groupmode="layer"
     id="layer1">
    <path
       style="fill:#ff6600;fill-opacity:1;stroke:none"
       d="m 507.92959,403.48364 c -95.41773,-28.81793 -192.86138,-39.40266 -295.85918,0 C 238.16802,311.88652 277.16277,223.72863 360,147.26208 c 79.74515,76.8319 112.53515,157.14538 147.92959,256.22156 z"
       id="path2989"
       inkscape:connector-curvature="0"
       sodipodi:nodetypes="cccc"
       inkscape:transform-center-y="-42.703594" />
    <path
       transform="matrix(0.5744681,0,0,0.5744681,158.93616,471.15868)"
       d="m 484.28572,539.50507 a 134.28572,134.28572 0 1 1 -268.57144,0 134.28572,134.28572 0 1 1 268.57144,0 z"
       sodipodi:ry="134.28572"
       sodipodi:rx="134.28572"
       sodipodi:cy="539.50507"
       sodipodi:cx="350"
       id="path2996"
       style="fill:#ff6600;fill-opacity:1;stroke:none"
       sodipodi:type="arc" />
    <path
       inkscape:transform-center-y="-42.703594"
       sodipodi:nodetypes="cccc"
       inkscape:connector-curvature="0"
       id="path2998"
       d="m 1299.8891,403.48364 c -95.4177,-28.81793 -192.8613,-39.40266 -295.8591,0 26.0976,-91.59712 65.0923,-179.75501 147.9296,-256.22156 79.7451,76.8319 112.5351,157.14538 147.9295,256.22156 z"
       style="fill:#666666;fill-opacity:1;stroke:#333333;stroke-opacity:1;stroke-width:9.7;stroke-miterlimit:4;stroke-dasharray:none"
       inkscape:export-filename="C:\Users\Ajay\Downloads\eclipse-jee-juno-SR1-win32-x86_64\projects\Lib-GDX\Bouncee\android\assets\triangle.png"
       inkscape:export-xdpi="61.602657"
       inkscape:export-ydpi="61.602657" />
    <path
       sodipodi:type="arc"
       style="fill:#666666;fill-opacity:1;stroke:#333333;stroke-opacity:1;stroke-width:14.40288852;stroke-miterlimit:4;stroke-dasharray:none"
       id="path3002"
       sodipodi:cx="350"
       sodipodi:cy="539.50507"
       sodipodi:rx="134.28572"
       sodipodi:ry="134.28572"
       d="m 484.28572,539.50507 a 134.28572,134.28572 0 1 1 -268.57144,0 134.28572,134.28572 0 1 1 268.57144,0 z"
       transform="matrix(0.5744681,0,0,0.5744681,950.89575,471.15868)"
       inkscape:export-filename="C:\Users\Ajay\Downloads\eclipse-jee-juno-SR1-win32-x86_64\projects\Lib-GDX\Bouncee\android\assets\circle.png"
       inkscape:export-xdpi="61.602657"
       inkscape:export-ydpi="61.602657" />
    <g
       id="g3925">
      <path
         id="path2994"
         d="m 484.28572,539.50507 c 0,74.16395 -60.12176,134.28572 -134.28572,134.28572 -74.16396,0 -134.28572,-60.12177 -134.28572,-134.28572 0,-74.16396 60.12176,-134.28572 134.28572,-134.28572 74.16396,0 134.28572,60.12176 134.28572,134.28572 z"
         style="fill:#ff6600;fill-opacity:1;stroke:none"
         transform="matrix(0.88297873,0,0,0.88297873,50.957445,77.572788)" />
      <path
         id="rect3772"
         d="M 286.4375 460.9375 C 277.32296 468.15545 269.31403 476.69432 262.65625 486.25 C 263.6387 486.48877 264.6608 486.65625 265.71875 486.65625 L 342.84375 486.65625 C 349.96661 486.65625 355.71875 480.9041 355.71875 473.78125 C 355.71875 466.65839 349.96661 460.9375 342.84375 460.9375 L 286.4375 460.9375 z "
         style="fill:#ffa800;fill-opacity:1;stroke:none" />
      <path
         id="rect3774"
         d="M 397.84375 460.9375 C 390.72089 460.9375 385 466.65839 385 473.78125 C 385 480.90411 390.72089 486.65625 397.84375 486.65625 L 457.625 486.65625 C 450.91242 476.93598 442.806 468.25757 433.5625 460.9375 L 397.84375 460.9375 z "
         style="fill:#ffa800;fill-opacity:1;stroke:none" />
      <path
         id="rect3776"
         d="M 440 542.375 C 432.87714 542.375 427.15625 548.09589 427.15625 555.21875 C 427.15625 562.34161 432.87714 568.0625 440 568.0625 L 477.75 568.0625 C 478.30024 563.42892 478.5625 558.71914 478.5625 553.9375 C 478.5625 550.03609 478.36825 546.17979 478 542.375 L 440 542.375 z "
         style="fill:#ffa800;fill-opacity:1;stroke:none" />
      <rect
         style="fill:#ffa800;fill-opacity:1;stroke:none"
         id="rect3778"
         width="102.85714"
         height="25.714285"
         x="257.14288"
         y="542.36218"
         ry="12.857142" />
      <path
         id="rect3780"
         d="M 270 624.5 C 268.36285 624.5 266.81267 624.8219 265.375 625.375 C 272.55788 634.87545 281.14043 643.25506 290.8125 650.21875 L 347.15625 650.21875 C 354.27911 650.21875 360 644.49786 360 637.375 C 360 630.25214 354.27911 624.5 347.15625 624.5 L 270 624.5 z "
         style="fill:#ffa800;fill-opacity:1;stroke:none" />
      <path
         id="rect3782"
         d="M 427.15625 624.5 C 420.03339 624.5 414.28125 630.25214 414.28125 637.375 C 414.28125 644.49786 420.03339 650.21875 427.15625 650.21875 L 429.1875 650.21875 C 439.15582 643.04177 447.96689 634.36157 455.28125 624.5 L 427.15625 624.5 z "
         style="fill:#ffa800;fill-opacity:1;stroke:none" />
      <path
         inkscape:connector-curvature="0"
         id="rect3826"
         d="m 317.85717,583.07648 77.14285,0 c 7.12286,0 12.85715,5.73428 12.85715,12.85714 0,7.12286 -5.73429,12.85714 -12.85715,12.85714 l -77.14285,0 c -7.12286,0 -12.85714,-5.73428 -12.85714,-12.85714 0,-7.12286 5.73428,-12.85714 12.85714,-12.85714 z"
         style="fill:#ff4800;fill-opacity:1;stroke:none" />
      <path
         id="rect3828"
         d="M 437.84375 583.0625 C 430.7209 583.0625 425 588.81464 425 595.9375 C 425 603.06036 430.7209 608.78125 437.84375 608.78125 L 465.15625 608.78125 C 469.36907 600.71708 472.69007 592.08303 474.96875 583.0625 L 437.84375 583.0625 z "
         style="fill:#ff4800;fill-opacity:1;stroke:none" />
      <path
         id="rect3830"
         d="M 437.84375 504.5 C 430.7209 504.5 425 510.25214 425 517.375 C 425 524.49785 430.7209 530.21875 437.84375 530.21875 L 476.1875 530.21875 C 474.36212 521.23668 471.51232 512.61927 467.78125 504.5 L 437.84375 504.5 z "
         style="fill:#ff4800;fill-opacity:1;stroke:none" />
      <path
         inkscape:connector-curvature="0"
         id="rect3832"
         d="m 317.85718,504.50504 77.14286,0 c 7.12286,0 12.85714,5.73428 12.85714,12.85714 0,7.12285 -5.73428,12.85714 -12.85714,12.85714 l -77.14286,0 c -7.12285,0 -12.85714,-5.73429 -12.85714,-12.85714 0,-7.12286 5.73429,-12.85714 12.85714,-12.85714 z"
         style="fill:#ff4800;fill-opacity:1;stroke:none" />
      <path
         id="rect3834"
         d="M 360 435.375 C 340.22299 435.375 321.58198 440.21818 305.1875 448.78125 L 378.5625 448.78125 C 384.46242 448.78125 389.38137 444.83636 390.90625 439.4375 C 381.05216 436.78407 370.69231 435.375 360 435.375 z "
         style="fill:#ff4800;fill-opacity:1;stroke:none" />
      <path
         id="path3860"
         d="M 252.21875 504.5 C 248.48768 512.61927 245.63788 521.23668 243.8125 530.21875 L 275 530.21875 C 282.12286 530.21875 287.84375 524.49785 287.84375 517.375 C 287.84375 510.25214 282.12286 504.5 275 504.5 L 252.21875 504.5 z "
         style="fill:#ff4800;fill-opacity:1;stroke:none" />
      <path
         id="path3862"
         d="M 245.03125 583.0625 C 247.30993 592.08303 250.63093 600.71708 254.84375 608.78125 L 272.84375 608.78125 C 279.96661 608.78125 285.71875 603.06036 285.71875 595.9375 C 285.71875 588.81464 279.96661 583.0625 272.84375 583.0625 L 245.03125 583.0625 z "
         style="fill:#ff4800;fill-opacity:1;stroke:none" />
    </g>
    <path
       style="fill:#000000;fill-opacity:1;stroke:#f22e00;stroke-opacity:1;stroke-width:10.69999999999999900;stroke-miterlimit:4;stroke-dasharray:none"
       d="m 889.76717,403.48364 c -95.4177,-28.81793 -192.8613,-39.40266 -295.8591,0 26.0976,-91.59712 65.0923,-179.75501 147.9296,-256.22156 79.7451,76.8319 112.5351,157.14538 147.9295,256.22156 z"
       id="path3870"
       inkscape:connector-curvature="0"
       sodipodi:nodetypes="cccc"
       inkscape:transform-center-y="-42.703594" />
    <path
       transform="matrix(0.5744681,0,0,0.5744681,540.77382,471.15868)"
       d="m 484.28572,539.50507 a 134.28572,134.28572 0 1 1 -268.57144,0 134.28572,134.28572 0 1 1 268.57144,0 z"
       sodipodi:ry="134.28572"
       sodipodi:rx="134.28572"
       sodipodi:cy="539.50507"
       sodipodi:cx="350"
       id="path3874"
       style="fill:#000000;fill-opacity:1;stroke:#f22e00;stroke-opacity:1;stroke-width:8.31029608;stroke-miterlimit:4;stroke-dasharray:none"
       sodipodi:type="arc" />
    <g
       id="g4020">
      <g
         id="g3941">
        <path
           transform="matrix(0.88297873,0,0,0.88297873,432.79512,77.572788)"
           style="fill:#000000;fill-opacity:1;stroke:#f22e00;stroke-opacity:1;stroke-width:1.00002409;stroke-miterlimit:4;stroke-dasharray:none"
           d="m 484.28572,539.50507 c 0,74.16395 -60.12176,134.28572 -134.28572,134.28572 -74.16396,0 -134.28572,-60.12177 -134.28572,-134.28572 0,-74.16396 60.12176,-134.28572 134.28572,-134.28572 74.16396,0 134.28572,60.12176 134.28572,134.28572 z"
           id="path3872" />
        <path
           inkscape:connector-curvature="0"
           id="path3876"
           d="m 660.00003,504.50504 77.14286,0 c 7.12286,0 12.85714,5.73428 12.85714,12.85714 0,7.12285 -5.73428,12.85714 -12.85714,12.85714 l -77.14286,0 c -7.12285,0 -12.85714,-5.73429 -12.85714,-12.85714 0,-7.12286 5.73429,-12.85714 12.85714,-12.85714 z"
           style="fill:#333333;fill-opacity:1;stroke:none" />
        <path
           style="fill:#333333;fill-opacity:1;stroke:none"
           d="M 782.84375 504.5 C 775.7209 504.5 770 510.25214 770 517.375 C 770 524.49785 775.7209 530.21875 782.84375 530.21875 L 858.03125 530.21875 C 856.20587 521.23668 853.35607 512.61927 849.625 504.5 L 782.84375 504.5 z "
           id="path3878" />
        <path
           inkscape:connector-curvature="0"
           id="path3880"
           d="m 744.28575,578.79075 77.14286,0 c 7.12286,0 12.85714,5.73428 12.85714,12.85714 0,7.12285 -5.73428,12.85714 -12.85714,12.85714 l -77.14286,0 c -7.12285,0 -12.85714,-5.73429 -12.85714,-12.85714 0,-7.12286 5.73429,-12.85714 12.85714,-12.85714 z"
           style="fill:#333333;fill-opacity:1;stroke:none" />
        <path
           style="fill:#333333;fill-opacity:1;stroke:none"
           d="M 625.90625 578.78125 C 627.823 587.77245 630.73407 596.39012 634.5625 604.5 L 689.28125 604.5 C 696.40411 604.5 702.15625 598.7791 702.15625 591.65625 C 702.15625 584.53339 696.40411 578.78125 689.28125 578.78125 L 625.90625 578.78125 z "
           id="path3882" />
        <path
           style="fill:#333333;fill-opacity:1;stroke:none"
           d="M 661.28125 640.9375 C 673.67719 652.4236 688.53217 661.28176 704.96875 666.65625 L 728.5625 666.65625 C 735.68536 666.65625 741.4375 660.9041 741.4375 653.78125 C 741.4375 646.65839 735.68536 640.9375 728.5625 640.9375 L 661.28125 640.9375 z "
           id="path3884" />
        <path
           style="fill:#333333;fill-opacity:1;stroke:none"
           d="M 798.5625 640.9375 C 791.43965 640.9375 785.71875 646.65839 785.71875 653.78125 C 785.71875 657.22118 787.06463 660.32229 789.25 662.625 C 801.52236 657.26406 812.71885 649.91386 822.40625 640.9375 L 798.5625 640.9375 z "
           id="path3886" />
        <path
           style="fill:#333333;fill-opacity:1;stroke:none"
           d="M 770 445.9375 C 762.87715 445.9375 757.15625 451.65839 757.15625 458.78125 C 757.15625 465.9041 762.87715 471.65625 770 471.65625 L 827.1875 471.65625 C 816.8581 460.94263 804.53797 452.17237 790.8125 445.9375 L 770 445.9375 z "
           id="path3888" />
        <path
           style="fill:#333333;fill-opacity:1;stroke:none"
           d="M 692.84375 445.9375 C 679.11749 452.17302 666.79839 460.94148 656.46875 471.65625 L 715.71875 471.65625 C 722.84161 471.65625 728.5625 465.9041 728.5625 458.78125 C 728.5625 451.65839 722.84161 445.9375 715.71875 445.9375 L 692.84375 445.9375 z "
           id="path3890" />
        <path
           id="path4015"
           d="M 741.84375 435.375 C 676.35855 435.375 623.28125 488.4523 623.28125 553.9375 C 623.28125 619.42269 676.35855 672.53125 741.84375 672.53125 C 807.32895 672.53125 860.40625 619.42269 860.40625 553.9375 C 860.40625 488.4523 807.32895 435.375 741.84375 435.375 z M 741.84375 444.46875 C 802.30792 444.46875 851.3125 493.47333 851.3125 553.9375 C 851.3125 614.40166 802.30792 663.4375 741.84375 663.4375 C 681.37957 663.4375 632.34375 614.40166 632.34375 553.9375 C 632.34375 493.47333 681.37957 444.46875 741.84375 444.46875 z "
           style="fill:#f22e00;fill-opacity:1;stroke:none;stroke-opacity:1;stroke-width:1.00002408999999990;stroke-miterlimit:4;stroke-dasharray:none" />
      </g>
    </g>
    <path
       style="fill:#ff0000;fill-opacity:1;stroke:none"
       d="m 124.07154,403.48364 c -95.417702,-28.81793 -192.861302,-39.40266 -295.8591,0 26.0976,-91.59712 65.0923,-179.75501 147.929598,-256.22156 79.7451,76.8319 112.5351,157.14538 147.929502,256.22156 z"
       id="path3911"
       inkscape:connector-curvature="0"
       sodipodi:nodetypes="cccc"
       inkscape:transform-center-y="-42.703594" />
    <path
       sodipodi:type="arc"
       style="fill:#ff0000;fill-opacity:1;stroke:none"
       id="path3913"
       sodipodi:cx="350"
       sodipodi:cy="539.50507"
       sodipodi:rx="134.28572"
       sodipodi:ry="134.28572"
       d="m 484.28572,539.50507 a 134.28572,134.28572 0 1 1 -268.57144,0 134.28572,134.28572 0 1 1 268.57144,0 z"
       transform="matrix(0.88297873,0,0,0.88297873,-332.90051,77.572788)" />
    <path
       transform="matrix(0.5744681,0,0,0.5744681,-224.92181,471.15868)"
       d="m 484.28572,539.50507 a 134.28572,134.28572 0 1 1 -268.57144,0 134.28572,134.28572 0 1 1 268.57144,0 z"
       sodipodi:ry="134.28572"
       sodipodi:rx="134.28572"
       sodipodi:cy="539.50507"
       sodipodi:cx="350"
       id="path3915"
       style="fill:#ff0000;fill-opacity:1;stroke:none"
       sodipodi:type="arc" />
    <g
       transform="matrix(0.99031414,0,0,0.99026584,11.157725,5.3932118)"
       id="g3339"
       inkscape:export-filename="C:\Users\Ajay\Downloads\eclipse-jee-juno-SR1-win32-x86_64\projects\Lib-GDX\Bouncee\android\assets\circleicon.png"
       inkscape:export-xdpi="61.602657"
       inkscape:export-ydpi="61.602657">
      <path
         transform="matrix(0.88297873,0,0,0.88297873,842.91705,77.572788)"
         style="fill:#666666;fill-opacity:1;stroke:none"
         d="m 484.28572,539.50507 c 0,74.16395 -60.12176,134.28572 -134.28572,134.28572 -74.16396,0 -134.28572,-60.12177 -134.28572,-134.28572 0,-74.16396 60.12176,-134.28572 134.28572,-134.28572 74.16396,0 134.28572,60.12176 134.28572,134.28572 z"
         id="path3000-8"
         inkscape:connector-curvature="0" />
      <path
         style="fill:#444444;fill-opacity:1;stroke:none"
         d="m 1041.3438,511.1875 c -3.163,8.17712 -5.4644,16.78116 -6.75,25.71875 l 73.7187,0 c 7.1228,0 12.875,-5.7209 12.875,-12.84375 0,-7.12286 -5.7522,-12.875 -12.875,-12.875 l -66.9687,0 z"
         id="path4130-1"
         inkscape:connector-curvature="0" />
      <path
         inkscape:connector-curvature="0"
         id="path4150-7"
         d="m 1169.571,511.19526 77.1429,0 c 7.1228,0 12.8572,5.73428 12.8572,12.85714 0,7.12285 -5.7344,12.85714 -12.8572,12.85714 l -77.1429,0 c -7.1228,0 -12.8571,-5.73429 -12.8571,-12.85714 0,-7.12286 5.7343,-12.85714 12.8571,-12.85714 z"
         style="fill:#444444;fill-opacity:1;stroke:none" />
      <path
         style="fill:#444444;fill-opacity:1;stroke:none"
         d="m 1221.0938,572.8125 c -7.1228,0 -12.875,5.72089 -12.875,12.84375 0,7.12285 5.7521,12.875 12.875,12.875 l 40.75,0 c 3.3172,-8.1648 5.7558,-16.76624 7.1874,-25.71875 l -47.9374,0 z"
         id="path4152-4"
         inkscape:connector-curvature="0" />
      <path
         inkscape:connector-curvature="0"
         id="path4154-0"
         d="m 1096.84,572.81457 77.1429,0 c 7.1228,0 12.8572,5.73428 12.8572,12.85714 0,7.12285 -5.7344,12.85714 -12.8572,12.85714 l -77.1429,0 c -7.1228,0 -12.8571,-5.73429 -12.8571,-12.85714 0,-7.12286 5.7343,-12.85714 12.8571,-12.85714 z"
         style="fill:#444444;fill-opacity:1;stroke:none" />
      <path
         style="fill:#444444;fill-opacity:1;stroke:none"
         d="m 1034.875,572.8125 c 1.4316,8.95304 3.9013,17.5535 7.2188,25.71875 l 5.625,0 c 7.1227,0 12.8437,-5.75215 12.8437,-12.875 0,-7.12286 -5.7209,-12.84375 -12.8437,-12.84375 l -12.8438,0 z"
         id="path4156-9"
         inkscape:connector-curvature="0" />
      <path
         style="fill:#444444;fill-opacity:1;stroke:none"
         d="m 1059.4688,627.375 c -0.2015,0 -0.3947,0.0222 -0.5938,0.0312 7.8865,9.98143 17.3445,18.64536 28,25.65625 l 49.7188,0 c 7.1227,0 12.875,-5.7209 12.875,-12.84375 0,-7.12286 -5.7522,-12.84375 -12.875,-12.84375 l -77.125,0 z"
         id="path4158-4"
         inkscape:connector-curvature="0" />
      <path
         style="fill:#444444;fill-opacity:1;stroke:none"
         d="m 1202.9062,627.375 c -7.1227,0 -12.8437,5.72089 -12.8437,12.84375 0,7.12285 5.7209,12.84375 12.8437,12.84375 l 14.125,0 c 10.6668,-7.01664 20.1391,-15.69459 28.0313,-25.6875 l -42.1563,0 z"
         id="path4160-8"
         inkscape:connector-curvature="0" />
      <path
         style="fill:#444444;fill-opacity:1;stroke:none"
         d="m 1196.6875,444.09375 c -3.9615,2.18591 -6.625,6.41919 -6.625,11.28125 0,7.12285 5.7209,12.84375 12.8437,12.84375 l 30.9688,0 c -10.6842,-10.20926 -23.2803,-18.4571 -37.1875,-24.125 z"
         id="path4162-8"
         inkscape:connector-curvature="0" />
      <path
         style="fill:#444444;fill-opacity:1;stroke:none"
         d="m 1111.375,442.5 c -15.5526,5.66512 -29.5781,14.50595 -41.3125,25.71875 l 69.5625,0 c 7.1228,0 12.875,-5.7209 12.875,-12.84375 0,-7.12286 -5.7522,-12.875 -12.875,-12.875 l -28.25,0 z"
         id="path4164-2"
         inkscape:connector-curvature="0" />
      <path
         inkscape:connector-curvature="0"
         id="path3334"
         d="m 1151.9596,434.20621 c -66.1276,0 -119.7312,53.61535 -119.7312,119.74291 0,66.12755 53.6036,119.73117 119.7312,119.73117 66.1276,0 119.7312,-53.60362 119.7312,-119.73117 0,-66.12756 -53.6036,-119.74291 -119.7312,-119.74291 z m 0,9.39621 c 60.9382,0 110.335,49.40852 110.335,110.3467 0,60.93817 -49.3968,110.33496 -110.335,110.33496 -60.9383,0 -110.335,-49.39679 -110.335,-110.33496 0,-60.93818 49.3967,-110.3467 110.335,-110.3467 z"
         style="fill:#333333;fill-opacity:1;stroke:none" />
    </g>
  </g>
</svg>
