<?xml version="1.0" encoding="UTF-8" standalone="no"?>
<!-- Created with Inkscape (http://www.inkscape.org/) -->

<svg
   xmlns:dc="http://purl.org/dc/elements/1.1/"
   xmlns:cc="http://creativecommons.org/ns#"
   xmlns:rdf="http://www.w3.org/1999/02/22-rdf-syntax-ns#"
   xmlns:svg="http://www.w3.org/2000/svg"
   xmlns="http://www.w3.org/2000/svg"
   xmlns:sodipodi="http://sodipodi.sourceforge.net/DTD/sodipodi-0.dtd"
   xmlns:inkscape="http://www.inkscape.org/namespaces/inkscape"
   width="744.09448819"
   height="1052.3622047"
   id="svg2"
   version="1.1"
   inkscape:version="0.48.2 r9819"
   sodipodi:docname="points try 2.svg">
  <defs
     id="defs4">
    <filter
       inkscape:collect="always"
       id="filter3835"
       x="-0.24521739"
       width="1.4904348"
       y="-0.24521739"
       height="1.4904348">
      <feGaussianBlur
         inkscape:collect="always"
         stdDeviation="4.0869565"
         id="feGaussianBlur3837" />
    </filter>
    <filter
       inkscape:collect="always"
       id="filter4076"
       x="-0.10434783"
       width="1.2086957"
       y="-0.10434783"
       height="1.2086957">
      <feGaussianBlur
         inkscape:collect="always"
         stdDeviation="4.5808222"
         id="feGaussianBlur4078" />
    </filter>
  </defs>
  <sodipodi:namedview
     id="base"
     pagecolor="#ffffff"
     bordercolor="#666666"
     borderopacity="1.0"
     inkscape:pageopacity="0.0"
     inkscape:pageshadow="2"
     inkscape:zoom="4.0000001"
     inkscape:cx="24.788099"
     inkscape:cy="746.97313"
     inkscape:document-units="px"
     inkscape:current-layer="layer1"
     showgrid="false"
     inkscape:window-width="1362"
     inkscape:window-height="698"
     inkscape:window-x="-32000"
     inkscape:window-y="-31232"
     inkscape:window-maximized="1" />
  <metadata
     id="metadata7">
    <rdf:RDF>
      <cc:Work
         rdf:about="">
        <dc:format>image/svg+xml</dc:format>
        <dc:type
           rdf:resource="http://purl.org/dc/dcmitype/StillImage" />
        <dc:title></dc:title>
      </cc:Work>
    </rdf:RDF>
  </metadata>
  <g
     inkscape:label="Layer 1"
     inkscape:groupmode="layer"
     id="layer1">
    <g
       id="g3839"
       inkscape:export-filename="C:\Users\Ajay\Downloads\eclipse-jee-juno-SR1-win32-x86_64\projects\Lib-GDX\Bouncee\android\assets\point2.png"
       inkscape:export-xdpi="61.391994"
       inkscape:export-ydpi="61.391994"
       transform="matrix(2.2912913,0,0,2.2912913,-525.6939,-440.50809)">
      <path
         transform="matrix(1.2878307,0,0,1.2878307,-95.806529,-129.38138)"
         d="m 352.85715,449.50504 c 0,11.04569 -8.95431,20 -20,20 -11.0457,0 -20,-8.95431 -20,-20 0,-11.0457 8.9543,-20 20,-20 11.04569,0 20,8.9543 20,20 z"
         sodipodi:ry="20"
         sodipodi:rx="20"
         sodipodi:cy="449.50504"
         sodipodi:cx="332.85715"
         id="path2985"
         style="fill:#ff0000;fill-opacity:1;stroke:none;filter:url(#filter3835)"
         sodipodi:type="arc" />
      <path
         transform="matrix(1.0757614,0,0,1.0757614,-25.217737,-34.055149)"
         sodipodi:type="arc"
         style="fill:#ff0000;fill-opacity:1;stroke:none"
         id="path3805"
         sodipodi:cx="332.85715"
         sodipodi:cy="449.50504"
         sodipodi:rx="20"
         sodipodi:ry="20"
         d="m 352.85715,449.50504 c 0,11.04569 -8.95431,20 -20,20 -11.0457,0 -20,-8.95431 -20,-20 0,-11.0457 8.9543,-20 20,-20 11.04569,0 20,8.9543 20,20 z" />
    </g>
    <g
       id="g3843"
       transform="matrix(2.2912913,0,0,2.2912913,-524.27969,-651.73881)"
       style="fill:#00ff00"
       inkscape:export-filename="C:\Users\Ajay\Downloads\eclipse-jee-juno-SR1-win32-x86_64\projects\Lib-GDX\Bouncee\android\assets\point1.png"
       inkscape:export-xdpi="61.391975"
       inkscape:export-ydpi="61.391975">
      <path
         sodipodi:type="arc"
         style="fill:#00ff00;fill-opacity:1;stroke:none;filter:url(#filter3835)"
         id="path3845"
         sodipodi:cx="332.85715"
         sodipodi:cy="449.50504"
         sodipodi:rx="20"
         sodipodi:ry="20"
         d="m 352.85715,449.50504 c 0,11.04569 -8.95431,20 -20,20 -11.0457,0 -20,-8.95431 -20,-20 0,-11.0457 8.9543,-20 20,-20 11.04569,0 20,8.9543 20,20 z"
         transform="matrix(1.2878307,0,0,1.2878307,-95.806529,-129.38138)" />
      <path
         d="m 352.85715,449.50504 c 0,11.04569 -8.95431,20 -20,20 -11.0457,0 -20,-8.95431 -20,-20 0,-11.0457 8.9543,-20 20,-20 11.04569,0 20,8.9543 20,20 z"
         sodipodi:ry="20"
         sodipodi:rx="20"
         sodipodi:cy="449.50504"
         sodipodi:cx="332.85715"
         id="path3847"
         style="fill:#00ff00;fill-opacity:1;stroke:none"
         sodipodi:type="arc"
         transform="matrix(1.0757614,0,0,1.0757614,-25.217737,-34.055149)" />
    </g>
    <g
       transform="matrix(2.2912913,0,0,2.2912913,-325.4914,-648.91038)"
       id="g3849"
       style="fill:#ffce00;fill-opacity:1"
       inkscape:export-filename="C:\Users\Ajay\Downloads\eclipse-jee-juno-SR1-win32-x86_64\projects\Lib-GDX\Bouncee\android\assets\point4.png"
       inkscape:export-xdpi="61.391994"
       inkscape:export-ydpi="61.391994">
      <path
         transform="matrix(1.2878307,0,0,1.2878307,-95.806529,-129.38138)"
         d="m 352.85715,449.50504 c 0,11.04569 -8.95431,20 -20,20 -11.0457,0 -20,-8.95431 -20,-20 0,-11.0457 8.9543,-20 20,-20 11.04569,0 20,8.9543 20,20 z"
         sodipodi:ry="20"
         sodipodi:rx="20"
         sodipodi:cy="449.50504"
         sodipodi:cx="332.85715"
         id="path3851"
         style="fill:#ffce00;fill-opacity:1;stroke:none;filter:url(#filter3835)"
         sodipodi:type="arc" />
      <path
         transform="matrix(1.0757614,0,0,1.0757614,-25.217737,-34.055149)"
         sodipodi:type="arc"
         style="fill:#ffce00;fill-opacity:1;stroke:none"
         id="path3853"
         sodipodi:cx="332.85715"
         sodipodi:cy="449.50504"
         sodipodi:rx="20"
         sodipodi:ry="20"
         d="m 352.85715,449.50504 c 0,11.04569 -8.95431,20 -20,20 -11.0457,0 -20,-8.95431 -20,-20 0,-11.0457 8.9543,-20 20,-20 11.04569,0 20,8.9543 20,20 z" />
    </g>
    <g
       id="g3855"
       transform="matrix(2.2912913,0,0,2.2912913,-117.08912,-648.91038)"
       style="fill:#8800d4;fill-opacity:1"
       inkscape:export-filename="C:\Users\Ajay\Downloads\eclipse-jee-juno-SR1-win32-x86_64\projects\Lib-GDX\Bouncee\android\assets\point7.png"
       inkscape:export-xdpi="61.391994"
       inkscape:export-ydpi="61.391994">
      <path
         sodipodi:type="arc"
         style="fill:#8800d4;fill-opacity:1;stroke:none;filter:url(#filter3835)"
         id="path3857"
         sodipodi:cx="332.85715"
         sodipodi:cy="449.50504"
         sodipodi:rx="20"
         sodipodi:ry="20"
         d="m 352.85715,449.50504 c 0,11.04569 -8.95431,20 -20,20 -11.0457,0 -20,-8.95431 -20,-20 0,-11.0457 8.9543,-20 20,-20 11.04569,0 20,8.9543 20,20 z"
         transform="matrix(1.2878307,0,0,1.2878307,-95.806529,-129.38138)" />
      <path
         d="m 352.85715,449.50504 c 0,11.04569 -8.95431,20 -20,20 -11.0457,0 -20,-8.95431 -20,-20 0,-11.0457 8.9543,-20 20,-20 11.04569,0 20,8.9543 20,20 z"
         sodipodi:ry="20"
         sodipodi:rx="20"
         sodipodi:cy="449.50504"
         sodipodi:cx="332.85715"
         id="path3859"
         style="fill:#8800d4;fill-opacity:1;stroke:none"
         sodipodi:type="arc"
         transform="matrix(1.0757614,0,0,1.0757614,-25.217737,-34.055149)" />
    </g>
    <g
       transform="matrix(2.2912913,0,0,2.2912913,-110.01805,-444.21361)"
       id="g3861"
       style="fill:#ff6698;fill-opacity:1"
       inkscape:export-filename="C:\Users\Ajay\Downloads\eclipse-jee-juno-SR1-win32-x86_64\projects\Lib-GDX\Bouncee\android\assets\point8.png"
       inkscape:export-xdpi="61.391994"
       inkscape:export-ydpi="61.391994">
      <path
         transform="matrix(1.2878307,0,0,1.2878307,-95.806529,-129.38138)"
         d="m 352.85715,449.50504 c 0,11.04569 -8.95431,20 -20,20 -11.0457,0 -20,-8.95431 -20,-20 0,-11.0457 8.9543,-20 20,-20 11.04569,0 20,8.9543 20,20 z"
         sodipodi:ry="20"
         sodipodi:rx="20"
         sodipodi:cy="449.50504"
         sodipodi:cx="332.85715"
         id="path3863"
         style="fill:#ff6698;fill-opacity:1;stroke:none;filter:url(#filter3835)"
         sodipodi:type="arc" />
      <path
         transform="matrix(1.0757614,0,0,1.0757614,-25.217737,-34.055149)"
         sodipodi:type="arc"
         style="fill:#ff6698;fill-opacity:1;stroke:none"
         id="path3865"
         sodipodi:cx="332.85715"
         sodipodi:cy="449.50504"
         sodipodi:rx="20"
         sodipodi:ry="20"
         d="m 352.85715,449.50504 c 0,11.04569 -8.95431,20 -20,20 -11.0457,0 -20,-8.95431 -20,-20 0,-11.0457 8.9543,-20 20,-20 11.04569,0 20,8.9543 20,20 z" />
    </g>
    <g
       id="g3867"
       transform="matrix(2.2912913,0,0,2.2912913,-321.7859,-449.87046)"
       style="fill:#000080"
       inkscape:export-filename="C:\Users\Ajay\Downloads\eclipse-jee-juno-SR1-win32-x86_64\projects\Lib-GDX\Bouncee\android\assets\point5.png"
       inkscape:export-xdpi="61.391994"
       inkscape:export-ydpi="61.391994">
      <path
         sodipodi:type="arc"
         style="fill:#000080;fill-opacity:1;stroke:none;filter:url(#filter3835)"
         id="path3869"
         sodipodi:cx="332.85715"
         sodipodi:cy="449.50504"
         sodipodi:rx="20"
         sodipodi:ry="20"
         d="m 352.85715,449.50504 c 0,11.04569 -8.95431,20 -20,20 -11.0457,0 -20,-8.95431 -20,-20 0,-11.0457 8.9543,-20 20,-20 11.04569,0 20,8.9543 20,20 z"
         transform="matrix(1.2878307,0,0,1.2878307,-95.806529,-129.38138)" />
      <path
         d="m 352.85715,449.50504 c 0,11.04569 -8.95431,20 -20,20 -11.0457,0 -20,-8.95431 -20,-20 0,-11.0457 8.9543,-20 20,-20 11.04569,0 20,8.9543 20,20 z"
         sodipodi:ry="20"
         sodipodi:rx="20"
         sodipodi:cy="449.50504"
         sodipodi:cx="332.85715"
         id="path3871"
         style="fill:#000080;fill-opacity:1;stroke:none"
         sodipodi:type="arc"
         transform="matrix(1.0757614,0,0,1.0757614,-25.217737,-34.055149)" />
    </g>
    <g
       transform="matrix(2.2912913,0,0,2.2912913,-345.82753,-843.97623)"
       id="g3873"
       style="fill:#ff8f00;fill-opacity:1"
       inkscape:export-filename="C:\Users\Ajay\Downloads\eclipse-jee-juno-SR1-win32-x86_64\projects\Lib-GDX\Bouncee\android\assets\point3.png"
       inkscape:export-xdpi="61.391983"
       inkscape:export-ydpi="61.391983">
      <path
         transform="matrix(1.2878307,0,0,1.2878307,-95.806529,-129.38138)"
         d="m 352.85715,449.50504 c 0,11.04569 -8.95431,20 -20,20 -11.0457,0 -20,-8.95431 -20,-20 0,-11.0457 8.9543,-20 20,-20 11.04569,0 20,8.9543 20,20 z"
         sodipodi:ry="20"
         sodipodi:rx="20"
         sodipodi:cy="449.50504"
         sodipodi:cx="332.85715"
         id="path3875"
         style="fill:#ff8f00;fill-opacity:1;stroke:none;filter:url(#filter3835)"
         sodipodi:type="arc" />
      <path
         transform="matrix(1.0757614,0,0,1.0757614,-25.217737,-34.055149)"
         sodipodi:type="arc"
         style="fill:#ff8f00;fill-opacity:1;stroke:none"
         id="path3877"
         sodipodi:cx="332.85715"
         sodipodi:cy="449.50504"
         sodipodi:rx="20"
         sodipodi:ry="20"
         d="m 352.85715,449.50504 c 0,11.04569 -8.95431,20 -20,20 -11.0457,0 -20,-8.95431 -20,-20 0,-11.0457 8.9543,-20 20,-20 11.04569,0 20,8.9543 20,20 z" />
    </g>
    <g
       id="g3879"
       transform="matrix(2.2912913,0,0,2.2912913,-529.13083,-865.18943)"
       style="fill:#008000"
       inkscape:export-filename="C:\Users\Ajay\Downloads\eclipse-jee-juno-SR1-win32-x86_64\projects\Lib-GDX\Bouncee\android\assets\point0.png"
       inkscape:export-xdpi="61.391991"
       inkscape:export-ydpi="61.391991">
      <path
         sodipodi:type="arc"
         style="fill:#008000;fill-opacity:1;stroke:none;filter:url(#filter3835)"
         id="path3881"
         sodipodi:cx="332.85715"
         sodipodi:cy="449.50504"
         sodipodi:rx="20"
         sodipodi:ry="20"
         d="m 352.85715,449.50504 c 0,11.04569 -8.95431,20 -20,20 -11.0457,0 -20,-8.95431 -20,-20 0,-11.0457 8.9543,-20 20,-20 11.04569,0 20,8.9543 20,20 z"
         transform="matrix(1.2878307,0,0,1.2878307,-95.806529,-129.38138)" />
      <path
         d="m 352.85715,449.50504 c 0,11.04569 -8.95431,20 -20,20 -11.0457,0 -20,-8.95431 -20,-20 0,-11.0457 8.9543,-20 20,-20 11.04569,0 20,8.9543 20,20 z"
         sodipodi:ry="20"
         sodipodi:rx="20"
         sodipodi:cy="449.50504"
         sodipodi:cx="332.85715"
         id="path3883"
         style="fill:#008000;fill-opacity:1;stroke:none"
         sodipodi:type="arc"
         transform="matrix(1.0757614,0,0,1.0757614,-25.217737,-34.055149)" />
    </g>
    <g
       transform="matrix(2.2912913,0,0,2.2912913,-133.91694,-842.56202)"
       id="g3885"
       style="fill:#87cdde"
       inkscape:export-filename="C:\Users\Ajay\Downloads\eclipse-jee-juno-SR1-win32-x86_64\projects\Lib-GDX\Bouncee\android\assets\point6.png"
       inkscape:export-xdpi="61.391994"
       inkscape:export-ydpi="61.391994">
      <path
         transform="matrix(1.2878307,0,0,1.2878307,-95.806529,-129.38138)"
         d="m 352.85715,449.50504 c 0,11.04569 -8.95431,20 -20,20 -11.0457,0 -20,-8.95431 -20,-20 0,-11.0457 8.9543,-20 20,-20 11.04569,0 20,8.9543 20,20 z"
         sodipodi:ry="20"
         sodipodi:rx="20"
         sodipodi:cy="449.50504"
         sodipodi:cx="332.85715"
         id="path3887"
         style="fill:#87cdde;fill-opacity:1;stroke:none;filter:url(#filter3835)"
         sodipodi:type="arc" />
      <path
         transform="matrix(1.0757614,0,0,1.0757614,-25.217737,-34.055149)"
         sodipodi:type="arc"
         style="fill:#87cdde;fill-opacity:1;stroke:none"
         id="path3889"
         sodipodi:cx="332.85715"
         sodipodi:cy="449.50504"
         sodipodi:rx="20"
         sodipodi:ry="20"
         d="m 352.85715,449.50504 c 0,11.04569 -8.95431,20 -20,20 -11.0457,0 -20,-8.95431 -20,-20 0,-11.0457 8.9543,-20 20,-20 11.04569,0 20,8.9543 20,20 z" />
    </g>
    <path
       sodipodi:type="arc"
       style="opacity:1;fill:none;fill-opacity:1;stroke:#000000;stroke-opacity:1;stroke-width:6.29999999999999980;stroke-miterlimit:4;stroke-dasharray:none;filter:url(#filter4076)"
       id="path4098"
       sodipodi:cx="7.4246211"
       sodipodi:cy="302.47543"
       sodipodi:rx="52.679455"
       sodipodi:ry="52.679455"
       d="m 60.104076,302.47543 a 52.679455,52.679455 0 1 1 -105.35891,0 52.679455,52.679455 0 1 1 105.35891,0 z"
       inkscape:export-filename="C:\Users\Ajay\Downloads\eclipse-jee-juno-SR1-win32-x86_64\projects\Lib-GDX\Bouncee\android\assets\shadow.png"
       inkscape:export-xdpi="61.391994"
       inkscape:export-ydpi="61.391994" />
    <path
       d="m 60.104076,302.47543 a 52.679455,52.679455 0 1 1 -105.35891,0 52.679455,52.679455 0 1 1 105.35891,0 z"
       sodipodi:ry="52.679455"
       sodipodi:rx="52.679455"
       sodipodi:cy="302.47543"
       sodipodi:cx="7.4246211"
       id="path4612"
       style="opacity:0;fill:#000000;fill-opacity:1;stroke:none;stroke-opacity:1;stroke-width:6.29999999999999980;stroke-miterlimit:4;stroke-dasharray:none;"
       sodipodi:type="arc" />
  </g>
</svg>
